<?xml version="1.0" encoding="utf-8"?>
<svg viewBox="2189.362 505.662 2714.917 2860.398" xmlns="http://www.w3.org/2000/svg" xmlns:xlink="http://www.w3.org/1999/xlink">
  <defs>
    <linearGradient id="gradient-43-0" gradientUnits="userSpaceOnUse" x1="1480.802" y1="95.787" x2="1480.802" y2="2956.185" gradientTransform="matrix(0.860013, -0.510273, 0.152793, 0.240722, -90.250656, 1239.492353)" xlink:href="#gradient-43"/>
    <linearGradient id="gradient-43">
      <stop style="stop-color: rgb(0, 255, 153);" offset="0"/>
      <stop style="stop-color: rgb(28, 33, 137);" offset="1"/>
    </linearGradient>
    <linearGradient id="gradient-43-3" gradientUnits="userSpaceOnUse" x1="812.159" y1="2201.574" x2="812.159" y2="2866.038" xlink:href="#gradient-43"/>
    <linearGradient id="gradient-43-4" gradientUnits="userSpaceOnUse" x1="1496.913" y1="4813.606" x2="1496.913" y2="5628.618" gradientTransform="matrix(0.038995, 0.999239, -0.700795, 0.035818, 5879.234294, 582.701115)" xlink:href="#gradient-43"/>
    <linearGradient id="gradient-43-5" gradientUnits="userSpaceOnUse" x1="852.93" y1="-663.342" x2="852.93" y2="393.382" xlink:href="#gradient-43"/>
    <linearGradient id="gradient-43-6" gradientUnits="userSpaceOnUse" x1="846.027" y1="-381.527" x2="846.027" y2="486.099" xlink:href="#gradient-43"/>
    <linearGradient id="gradient-43-12" gradientUnits="userSpaceOnUse" x1="1574.044" y1="852.9" x2="1574.044" y2="1034.5" xlink:href="#gradient-43"/>
    <linearGradient id="gradient-43-13" gradientUnits="userSpaceOnUse" x1="1325.119" y1="643.887" x2="1325.119" y2="1027.889" xlink:href="#gradient-43"/>
    <linearGradient id="gradient-43-14" gradientUnits="userSpaceOnUse" x1="1489.112" y1="732.294" x2="1489.112" y2="894.2" xlink:href="#gradient-43"/>
    <linearGradient id="gradient-43-15" gradientUnits="userSpaceOnUse" x1="1010.481" y1="813.3" x2="1010.481" y2="988.2" xlink:href="#gradient-43"/>
    <linearGradient id="gradient-43-16" gradientUnits="userSpaceOnUse" x1="1607.195" y1="735.8" x2="1607.195" y2="982.7" xlink:href="#gradient-43"/>
    <linearGradient id="gradient-43-17" gradientUnits="userSpaceOnUse" x1="1813.753" y1="963.6" x2="1813.753" y2="1117.8" xlink:href="#gradient-43"/>
    <linearGradient id="gradient-43-18" gradientUnits="userSpaceOnUse" x1="1658.004" y1="747.9" x2="1658.004" y2="894.9" xlink:href="#gradient-43"/>
    <linearGradient id="gradient-43-19" gradientUnits="userSpaceOnUse" x1="1569.385" y1="651.705" x2="1569.385" y2="766.5" xlink:href="#gradient-43"/>
    <linearGradient id="gradient-43-20" gradientUnits="userSpaceOnUse" x1="1978.266" y1="955.1" x2="1978.266" y2="1119.705" xlink:href="#gradient-43"/>
    <linearGradient id="gradient-43-21" gradientUnits="userSpaceOnUse" x1="1656.447" y1="991.049" x2="1656.447" y2="1133.3" xlink:href="#gradient-43"/>
    <linearGradient id="gradient-43-22" gradientUnits="userSpaceOnUse" x1="1086.65" y1="918.9" x2="1086.65" y2="1072.7" xlink:href="#gradient-43"/>
    <linearGradient id="gradient-43-23" gradientUnits="userSpaceOnUse" x1="1816.68" y1="745.969" x2="1816.68" y2="871.4" xlink:href="#gradient-43"/>
    <linearGradient id="gradient-43-24" gradientUnits="userSpaceOnUse" x1="1166.992" y1="873.3" x2="1166.992" y2="1109.9" xlink:href="#gradient-43"/>
    <linearGradient id="gradient-43-25" gradientUnits="userSpaceOnUse" x1="1419.171" y1="672.3" x2="1419.171" y2="820" xlink:href="#gradient-43"/>
    <linearGradient id="gradient-43-26" gradientUnits="userSpaceOnUse" x1="1167.183" y1="777.717" x2="1167.183" y2="915.3" xlink:href="#gradient-43"/>
    <linearGradient id="gradient-43-27" gradientUnits="userSpaceOnUse" x1="1495.68" y1="979.6" x2="1495.68" y2="1104.963" xlink:href="#gradient-43"/>
    <linearGradient id="gradient-43-28" gradientUnits="userSpaceOnUse" x1="1738.228" y1="871.502" x2="1738.228" y2="994.1" xlink:href="#gradient-43"/>
    <linearGradient id="gradient-43-29" gradientUnits="userSpaceOnUse" x1="1731.239" y1="1086.2" x2="1731.239" y2="1195.496" xlink:href="#gradient-43"/>
    <linearGradient id="gradient-43-30" gradientUnits="userSpaceOnUse" x1="976.765" y1="749.15" x2="976.765" y2="1181.854" xlink:href="#gradient-43"/>
    <linearGradient id="gradient-43-31" gradientUnits="userSpaceOnUse" x1="975.681" y1="1114.242" x2="975.681" y2="1374.6" xlink:href="#gradient-43"/>
    <linearGradient id="gradient-43-32" gradientUnits="userSpaceOnUse" x1="962.637" y1="1194.6" x2="962.637" y2="1275.701" xlink:href="#gradient-43"/>
    <linearGradient id="gradient-43-33" gradientUnits="userSpaceOnUse" x1="1408.8" y1="690.3" x2="1408.8" y2="1227.6" xlink:href="#gradient-43"/>
    <linearGradient id="gradient-43-34" gradientUnits="userSpaceOnUse" x1="1083.844" y1="1017.7" x2="1083.844" y2="1425.644" xlink:href="#gradient-43"/>
    <linearGradient id="gradient-43-35" gradientUnits="userSpaceOnUse" x1="1878.591" y1="692.118" x2="1878.591" y2="730.341" xlink:href="#gradient-43"/>
    <linearGradient id="gradient-43-36" gradientUnits="userSpaceOnUse" x1="1898" y1="1078.6" x2="1898" y2="1130" xlink:href="#gradient-43"/>
    <linearGradient id="gradient-43-37" gradientUnits="userSpaceOnUse" x1="883.49" y1="919.6" x2="883.49" y2="988.6" xlink:href="#gradient-43"/>
    <linearGradient id="gradient-43-38" gradientUnits="userSpaceOnUse" x1="1076.311" y1="1166.7" x2="1076.311" y2="1234.2" xlink:href="#gradient-43"/>
    <linearGradient id="gradient-43-39" gradientUnits="userSpaceOnUse" x1="2258.4" y1="1463.296" x2="2258.4" y2="1788.602" xlink:href="#gradient-43"/>
  </defs>
  <g id="Layer_1" transform="matrix(1, 0, 0, 1, 4574.961006, 3355.456105)"/>
  <g id="Layer_2" transform="matrix(1, 0, 0, 1, 4574.961006, 3355.456105)">
    <g>
      <g id="g-1" transform="matrix(1, 0, 0, 1, -2508.94249, -2945.580559)"/>
      <g id="g-2" transform="matrix(1, 0, 0, 1, -2508.94249, -2945.580559)">
        <g>
          <path class="st0" d="M 2539.9 2054.4 C 2590.6 2080.1 2635.7 2109.8 2675.7 2146.9 C 2773.5 2237.5 2810.2 2348.5 2784.1 2479.1 C 2771.7 2540.9 2754.8 2601.7 2735.7 2661.8 C 2691.2 2802 2595.8 2885 2452.9 2913.1 C 2272.2 2948.6 2090 2964.4 1905.7 2952 C 1698.4 2938 1499.8 2889.1 1310.5 2803.3 C 1302.5 2799.7 1296.2 2795 1287.3 2803.9 C 1219 2872 1133.2 2899.8 1039.9 2910.3 C 916 2924.2 794.8 2904.1 673.4 2883.7 C 609.6 2873 547.1 2857.2 487.4 2832.3 C 399.1 2795.6 324.8 2741.8 280.9 2653.7 C 232.3 2556.2 235.5 2455.7 267.2 2354.4 C 281.2 2309.7 299.6 2266.6 324.6 2226.7 C 329.3 2219.2 332.4 2214.3 321.2 2208.2 C 217.3 2151.1 162.6 2059.9 161.5 1944.2 C 159.9 1767.3 192 1597 295.6 1447.3 C 303.2 1436.3 317.3 1425 316.8 1414.3 C 316.3 1402.7 298.1 1396.7 287.7 1388.2 C 172.6 1293.6 117.1 1171.1 123.9 1023.3 C 131.6 856.2 153.9 690.8 200.1 529.4 C 225.2 441.6 265.3 361.7 322.8 290.1 C 472.3 103.6 760.5 90.2 925.8 263.7 C 939.4 278 946.5 276.9 961.4 266.3 C 1147 133.9 1354.3 80.1 1580.8 99.7 C 1752.7 114.6 1907.5 176.2 2047.5 276 C 2062.6 286.8 2068.4 284.6 2077.8 270.1 C 2129.2 190.5 2197.7 132.7 2292.7 114.4 C 2490.6 76.4 2685.6 153.5 2773.4 359 C 2830.6 492.8 2855 632.5 2826 777.1 C 2803.9 887.5 2778.5 997.6 2712 1092.3 C 2703.1 1104.9 2710.4 1116 2713.7 1127.1 C 2751.4 1251.5 2771.1 1378.8 2767.9 1508.6 C 2763.6 1680 2723 1840.5 2614.8 1978.6 C 2593.1 2006 2567.4 2029 2539.9 2054.4 Z" style="stroke: rgb(0, 0, 0); stroke-miterlimit: 10; stroke-width: 3.5px; fill: url(#gradient-43-0);"/>
          <path class="st0" d="M 712.2 2160.8 C 719 2163.3 722.1 2164.7 725.2 2165.6 C 877.2 2210.2 1031.6 2243.2 1189.2 2261.4 C 1402.7 2286 1616.1 2287.9 1829.3 2257.5 C 1991.7 2234.4 2150.8 2198.1 2302.7 2134.5 C 2383.3 2100.8 2460.7 2060.8 2524.8 2000.5 C 2641.9 1890.4 2694.1 1749.4 2712 1593.2 C 2724.1 1487.7 2717.4 1383 2698.7 1278.9 C 2690.8 1235 2682.2 1191.2 2666.7 1147.4 C 2661.8 1151.5 2658.1 1154.3 2654.8 1157.4 C 2615.9 1194.3 2571.6 1222.9 2522.1 1243 C 2513.8 1246.4 2502.7 1260.2 2494.8 1239.8 C 2481.8 1206.3 2481.1 1206.6 2502 1197.7 C 2581.9 1163.5 2644.7 1109.9 2689.6 1035 C 2720.4 983.6 2735.6 926.7 2753.2 870.3 C 2800.9 717.9 2797.8 566.8 2743.1 416.7 C 2719.8 352.8 2687.7 294.2 2637 247.6 C 2568.7 184.9 2486.5 156.8 2395.3 154.7 C 2318.9 152.9 2246.5 168.1 2186.2 219.6 C 2150.7 249.9 2125.7 288.6 2100 327.2 C 1999.4 478.2 1969.4 643.8 1995.2 821.2 C 2002.6 872 2024.4 917 2064.7 948.7 C 2139.9 1008 2222.4 1009.3 2305.5 967 C 2367.9 935.3 2382.4 874.1 2346.5 813.8 C 2333.1 791.3 2315.5 779.1 2288.5 780.2 C 2268.2 781 2247.7 779.4 2228.3 771.9 C 2174.5 751 2140.1 686 2151.4 624.7 C 2165.4 548.4 2216.1 498.3 2275.4 454.8 C 2281.1 450.6 2289.3 449.7 2296.5 447.7 C 2299.7 446.8 2302.8 447.1 2304.8 451.1 C 2310.4 462.6 2302.2 495.3 2291.8 504 C 2254.5 535.1 2219.3 568.2 2204.5 616.6 C 2185.5 678.4 2219.5 726.8 2283.3 729.6 C 2310 730.8 2335.7 734.4 2358.2 751.3 C 2429.2 804.9 2434 927.3 2366.9 985.5 C 2279.1 1061.7 2133.7 1065.3 2041.8 993.5 C 2037.9 990.5 2034.7 985.4 2028.1 986.9 C 2047.6 1009 2085.6 1034.9 2120.2 1049.9 C 2247.9 1105.2 2411.8 1026.3 2448.3 891.9 C 2455.2 866.4 2460.7 840.4 2471.1 816 C 2484.3 785.1 2503.5 759.4 2535.2 745.3 C 2560.7 734 2564.1 736 2565 763.9 C 2565.3 772 2574.6 783.5 2561 788.7 C 2534 798.9 2521.5 821 2513.2 845.9 C 2506.3 866.4 2501.6 887.7 2496 908.7 C 2463.7 1029.8 2320.4 1129 2195.6 1117.6 C 2152.7 1113.7 2112 1103.5 2069.2 1080.7 C 2104.5 1131.8 2147 1165.7 2195.5 1192.7 C 2223.2 1208.1 2222.8 1207.9 2209.6 1237.7 C 2204.7 1248.8 2199.6 1251.3 2188.3 1245.4 C 2156.8 1229.1 2126.7 1210.8 2099.7 1187.8 C 2092.3 1181.5 2084.4 1177.6 2074.5 1175.9 C 1961.8 1157 1853.7 1170.7 1751.9 1223 C 1670.1 1265 1602.8 1322.9 1555 1403.4 C 1480.3 1529.2 1320.8 1567 1196.3 1490.5 C 1188.6 1485.8 643.181 1390.525 633.981 1390.125 C 589.181 1387.825 1082.3 1477.2 1037.6 1474.2 C 1024.4 1473.3 1017.8 1475.8 1018 1490.9 C 1018.2 1503 1015.3 1515.2 1013.1 1527.1 C 1004.2 1574.3 981.3 1616.3 964.1 1660.5 C 954.9 1684.1 947.8 1707.9 946.4 1733.4 C 945.9 1743.4 948.6 1747.9 959.9 1747.8 C 1047.8 1747.3 1132.8 1764.7 1214.3 1796.4 C 1277.4 1820.9 1340.3 1818.2 1404.6 1806.8 C 1518 1786.6 1620.7 1742.3 1715.6 1676.7 C 1772.2 1637.5 1835.5 1608.4 1906.2 1606.2 C 2003.3 1603.1 2072.2 1641.9 2101.3 1735.4 C 2119.8 1794.8 2116.6 1854.4 2103.3 1914.5 C 2091.7 1911.8 2081.2 1908.6 2070.5 1907 C 2057.4 1905 2055.1 1900 2057.8 1886.5 C 2067 1839.3 2067.7 1792.1 2052.2 1745.6 C 2036.5 1698.4 2005.4 1668.2 1955.8 1659.6 C 1922.7 1653.9 1889.7 1654.1 1857.2 1664.6 C 1808.4 1680.3 1762.9 1702.6 1721 1732.1 C 1649.7 1782.4 1571.2 1817.2 1487.2 1839.3 C 1414.1 1858.5 1340 1874.2 1263.9 1861.7 C 1219.7 1854.4 1178.6 1835.2 1135.5 1823.4 C 1033.2 1795.4 930.6 1785 827.2 1817.5 C 791.2 1828.9 762.4 1849.5 741.2 1882 C 708.3 1932.6 674.5 1982.8 633.4 2027.5 C 608.1 2055 577.4 2072 540 2076.7 C 492.5 2082.7 442.2 2060.8 422 2024.3 C 419.4 2019.6 413.1 2014.1 423.2 2010.2 C 435.1 2005.5 446.7 1998.6 459 1996.5 C 467 1995.1 469.2 2007.9 476.2 2012.3 C 485.4 2018.2 494.7 2023.5 505.7 2025.4 C 540.4 2031.2 569.8 2022.1 594.3 1996.2 C 637 1951 669.6 1898.4 704.6 1847.5 C 718.3 1827.5 734.8 1810.8 754.8 1797.6 C 790.6 1773.9 830.3 1761 872.7 1756.1 C 889.1 1754.2 899.2 1750.7 898.2 1730 C 897 1704.9 903.8 1680.1 912.8 1656.5 C 925.5 1623.7 938.8 1591.1 952.4 1558.6 C 984.1 1482.2 970.2 1419 909.2 1363.2 C 874.7 1331.7 832.6 1314.1 789.1 1300.7 C 743.2 1286.6 696 1273.6 647.5 1283.3 C 481.6 1316.5 359.7 1407.8 286.3 1561.7 C 247.3 1643.6 231.5 1731.6 217.5 1819.3 C 223.1 1820.3 228.4 1820.5 233.2 1822.1 C 260.3 1831.4 288 1837.7 316.5 1839.6 C 410.7 1845.7 493.5 1820 561 1751.5 C 613.5 1698.1 642.7 1632.5 660.9 1561.3 C 662.5 1555 663.1 1547.9 670.6 1548.5 C 683.3 1549.3 697.7 1549 707.9 1555 C 716.1 1559.8 706.9 1572.3 706.2 1581.4 C 706.1 1582.1 706.1 1582.8 706 1583.4 C 674.7 1703.9 613 1801.9 496.9 1856.9 C 411.1 1897.6 321.4 1901.3 230.9 1873.4 C 213.3 1868 210.3 1873.2 209.6 1888.8 C 208.5 1914 209.7 1939.1 212.8 1964.1 C 219.8 2022.3 240.1 2075 282 2116.9 C 353.8 2188.6 441.7 2210.4 538.8 2190.3 C 620.5 2173.3 688.8 2134.2 732.7 2058.2 C 758.9 2012.9 801.6 1984.1 850 1964.4 C 909.7 1940.1 972.3 1935.1 1035.5 1937.9 C 1199 1945.1 1362.6 1952.4 1525.9 1962.7 C 1592.6 1966.9 1643.5 1944.3 1684 1893 C 1698.7 1874.4 1714.3 1856.3 1730.4 1838.9 C 1755.1 1812.4 1785.6 1795.3 1821.2 1787.8 C 1871 1777.3 1918.2 1788.1 1964.6 1805.4 C 1997.4 1817.6 1996.9 1817.4 1982.7 1849.4 C 1977.8 1860.4 1973 1864.3 1961.9 1857.8 C 1956.1 1854.4 1949.5 1852.2 1943.1 1849.9 C 1847.2 1815.5 1791.4 1834.1 1738.3 1904.9 C 1734.2 1910.3 1730.1 1915.7 1725.7 1920.9 C 1701.4 1949.5 1675.5 1976.2 1640.9 1992.9 C 1624.3 2000.9 1601.9 2001.2 1590.7 2012.5 C 1578.9 2024.4 1583 2048.4 1575 2065.7 C 1574.7 2066.3 1574.5 2067 1574.3 2067.6 C 1545.5 2139.3 1470.5 2181 1403.1 2162.8 C 1341.7 2146.2 1295.9 2088 1289.5 2016.2 C 1288.4 2004.1 1285.2 2000 1273.2 1999.6 C 1240.6 1998.4 1208.1 1995.5 1175.5 1994.3 C 1096.9 1991.5 1018.3 1981.5 939.5 1992.3 C 875.3 2001.1 818.6 2024.7 779 2078.2 C 758.8 2106.1 743 2137.3 712.2 2160.8 Z" style="stroke: rgb(0, 0, 0); stroke-miterlimit: 10; stroke-width: 3.5px; fill: rgb(241, 115, 134);"/>
          <path class="st0" d="M 813.8 1255.5 C 814.3 1251.1 815 1248.4 814.8 1245.9 C 808.5 1169.2 812.4 1092.5 815.8 1015.8 C 819.6 929.7 835.1 847.3 887.9 775.9 C 945.8 697.5 1018.7 646.9 1120.9 657.6 C 1178 663.6 1231.6 657.1 1282.6 630.1 C 1342.7 598.4 1407.7 588.5 1474.3 594.9 C 1623.5 609.2 1772.2 627.9 1920.7 648.7 C 1935.7 650.8 1939.5 647.3 1940.5 633.3 C 1947.6 530.6 1979.1 435.3 2030.2 346.4 C 2037.7 333.3 2035.5 327.8 2023.6 319.4 C 1841.7 190.9 1640.9 129.2 1417.6 149.1 C 1225.5 166.2 1053.1 234.6 914.7 369.5 C 674.2 603.9 579.3 893.8 607.3 1226.2 C 608.3 1238.6 613.5 1238.5 623 1236.4 C 650.4 1230.3 677.8 1229.3 705.9 1232.7 C 742.4 1237.3 778 1244.6 813.8 1255.5 Z" style="stroke: rgb(0, 0, 0); stroke-miterlimit: 10; stroke-width: 3.5px; fill: rgb(241, 115, 134);"/>
          <path class="st0" d="M 949 2866 C 995.6 2866.5 1041.6 2862.1 1086.8 2852.4 C 1200.3 2828 1285.3 2769.1 1318.9 2652.4 C 1357.3 2519.2 1297.4 2401.3 1204.3 2317 C 1199.5 2312.6 1193.6 2311.6 1187.4 2310.9 C 1014.6 2292.8 846.1 2254.2 680.1 2204.2 C 666.1 2200 654.8 2200.7 641.5 2207.3 C 562.1 2246.9 478.9 2257.6 392.4 2236.4 C 381.1 2233.6 376.1 2235.2 370.2 2245.5 C 345.7 2287.9 325.6 2332.4 311.7 2379.2 C 287.3 2460.9 285.1 2542.4 320.7 2622.1 C 358.1 2705.8 427.2 2754.6 509 2786.6 C 650.3 2842 799.5 2855.1 949 2866 Z" style="stroke: rgb(0, 0, 0); stroke-miterlimit: 10; stroke-width: 3.5px; fill: url(#gradient-43-3);"/>
          <path class="st0" d="M 1279 2321.1 C 1325.3 2375.7 1357.1 2431.8 1372.1 2496.7 C 1379.4 2528.1 1379.4 2527.8 1412.1 2530.6 C 1500 2538.2 1588 2544.5 1676.2 2548.2 C 1797.2 2553.4 1918 2550.9 2038.8 2545.4 C 2170.4 2539.4 2301.4 2525.8 2431.7 2506.3 C 2529.7 2491.7 2627 2473.5 2723.7 2452.4 C 2731.6 2450.7 2739 2449 2740 2437.9 C 2746.7 2366.6 2735.2 2300 2692.1 2240.8 C 2645.3 2176.6 2582.4 2132.8 2513.3 2096.3 C 2501 2089.8 2492.1 2090 2480.1 2097.8 C 2424.7 2133.7 2366.3 2164.3 2304.9 2188.2 C 2043.3 2289.8 1770.6 2329.3 1491.4 2330.6 C 1422.1 2330.9 1353.1 2325.8 1279 2321.1 Z M 2727.1 2503.6 C 2719.4 2504.8 2714.8 2505.4 2710.3 2506.4 C 2604.9 2529.4 2498.7 2547.9 2391.8 2562 C 2373.7 2564.4 2364.8 2571.1 2357.7 2587.2 C 2342.1 2622.6 2321.7 2655.6 2300.8 2688.2 C 2273.5 2730.9 2234.8 2757.5 2185.9 2769.8 C 2140.2 2781.3 2093.6 2786.2 2046.7 2787.2 C 2008.3 2788 1971.9 2780.8 1947.5 2746.4 C 1942.4 2739.2 1938.1 2741.7 1932.4 2745.4 C 1918.2 2754.8 1903.3 2762.7 1885.6 2763.7 C 1849.2 2765.9 1813.9 2759.7 1779.4 2748.9 C 1763.8 2744 1751.8 2733.7 1744.5 2719.3 C 1727.9 2686.2 1716.2 2651.6 1719.8 2613.9 C 1720.8 2603.4 1719.2 2599.8 1707.9 2599.5 C 1606.1 2596.3 1504.3 2590.8 1403.1 2579.4 C 1382.7 2577.1 1379.6 2584.7 1378.5 2601.6 C 1375.5 2651.2 1360.9 2697.7 1335.8 2740.4 C 1328.2 2753.2 1329.9 2757.6 1343.2 2763.6 C 1552 2856.4 1770.8 2902.2 1998.9 2906.4 C 2096.9 2908.2 2194.4 2901.2 2291.5 2889 C 2364.1 2879.9 2436.8 2870.5 2506.4 2845.5 C 2574 2821.2 2625.8 2779.5 2658.4 2715 C 2692 2648.8 2709.6 2577.8 2727.1 2503.6 Z" style="stroke: rgb(0, 0, 0); stroke-miterlimit: 10; stroke-width: 3.5px; fill: url(#gradient-43-4);"/>
          <path class="st0" d="M 230.2 1248 C 254.6 1209.5 270.9 1170.8 277.3 1128.7 C 292.9 1026.8 306.3 924.6 322.6 822.9 C 345.6 679.3 389 542.4 459.6 414.3 C 500 341 564.2 313.2 642.9 311.2 C 710.3 309.5 776.5 321.6 841.8 337.1 C 861.2 341.7 874.3 338.7 888.7 324.9 C 900.3 313.8 900.7 308.2 889.6 296.7 C 768.8 171.2 560.6 154.8 421.1 263.4 C 342.3 324.8 294.4 408.9 261.5 502.1 C 223.7 609 206.6 720.2 192 831.9 C 181 915.4 168.5 998.7 175.7 1083.4 C 180.6 1141.6 196.3 1196.3 230.2 1248 Z" style="stroke: rgb(0, 0, 0); stroke-miterlimit: 10; stroke-width: 3.5px; fill: url(#gradient-43-5);"/>
          <path class="st0" d="M 677.6 508 C 618.3 502.7 580.9 531.5 557 583 C 544.7 609.5 533.4 636.2 526.1 664.5 C 510.9 723.5 496.5 782.7 477.3 840.6 C 463.2 883.2 453 926.5 447.7 971.2 C 442.9 1011.6 443 1052.5 435 1092.6 C 417.6 1179.7 385.5 1261.6 349.9 1342.5 C 346.3 1350.7 333.1 1359.8 347.1 1370.5 C 362.2 1382.1 367.6 1365.8 374.7 1359.6 C 417.7 1322.3 465.3 1292.9 517.7 1271 C 558.8 1253.8 559.1 1253.9 555.6 1208.6 C 537.7 974.4 586.4 755.4 705.5 552.4 C 712.8 539.9 730.1 524.1 723.7 514.5 C 715.1 502.3 693.2 508.7 677.6 508 Z" style="stroke: rgb(0, 0, 0); stroke-miterlimit: 10; stroke-width: 3.5px; fill: url(#gradient-43-6);"/>
          <path class="st0" d="M 1347.7 1064.1 C 1240.3 1055.2 1144.2 1131.1 1126.7 1237.3 C 1109.1 1344.2 1178.3 1449.2 1282.8 1474.1 C 1373.6 1495.8 1486.5 1447.5 1509.3 1377.3 C 1333.4 1376.5 1258.3 1206.5 1347.7 1064.1 Z" style="stroke: rgb(0, 0, 0); stroke-miterlimit: 10; stroke-width: 3.5px; fill: rgb(0, 255, 221);"/>
          <path class="st0" d="M 640.3 360.3 C 597.9 361.2 540.3 372.2 507.4 431.6 C 476.9 486.8 449.4 543.6 428.6 603.4 C 374.7 758.3 357.1 920.5 335.1 1081.6 C 326.3 1146.1 313.1 1208.4 278.8 1264.7 C 260.2 1295.2 260.2 1295.2 286.8 1320.4 C 287.8 1321.3 288.8 1322.2 289.7 1323.2 C 297.2 1332.1 301.2 1328.7 304.9 1319.6 C 318.9 1285 334.3 1251 347.2 1216 C 370.8 1152.3 389.7 1087.4 392.9 1018.7 C 394.6 982.2 398.9 945.7 406.6 909.8 C 422.8 834.2 451.6 762 468.6 686.7 C 481.9 628.1 500.5 571.7 535.4 521.9 C 557.4 490.5 586.9 470 624.6 462.4 C 665.1 454.3 705.6 455 745.6 465.6 C 754.7 468 760.5 467.1 766.5 459.3 C 783.1 437.8 800.3 416.7 817.9 396.1 C 826.3 386.4 824.3 383.7 812.4 381.4 C 761.9 371.5 711.2 362.1 640.3 360.3 Z M 2309.3 2573.4 C 2225.6 2581.9 2145.3 2589.9 2064.8 2594 C 2055.1 2594.5 2050.9 2600.4 2046.4 2607.6 C 2029.8 2634.8 2012.6 2661.6 1992.6 2686.5 C 1978.2 2704.4 1979.1 2711.6 1996.9 2726 C 2004.6 2732.2 2013.6 2734.3 2023.3 2735.2 C 2060.8 2738.7 2097.9 2734.4 2134.8 2728.9 C 2174.7 2723 2214.3 2714.3 2242.6 2682.1 C 2270.3 2650.7 2287.9 2612.7 2309.3 2573.4 Z" style="stroke: rgb(0, 0, 0); stroke-miterlimit: 10; stroke-width: 3.5px; fill: rgb(241, 115, 134);"/>
          <path class="st0" d="M 1542 1263.5 C 1538.1 1183.6 1497.6 1119.8 1418.7 1080.3 C 1408.2 1075.1 1402.1 1076.5 1395.1 1086 C 1380.5 1106 1369.9 1127.7 1364 1151.7 C 1342.5 1239.6 1397.6 1319.2 1485.4 1323.9 C 1540.8 1326.9 1538.6 1331.2 1542 1263.5 Z" style="stroke: rgb(0, 0, 0); stroke-miterlimit: 10; stroke-width: 3.5px; fill: rgb(30, 0, 255);"/>
          <path class="st0" d="M 1993.1 2600.4 C 1922.2 2600.4 1853.8 2600.6 1785.4 2600.2 C 1773.2 2600.1 1770.6 2606.9 1769.6 2616.6 C 1766.9 2644.8 1774.6 2671.5 1789 2694.2 C 1799.1 2710 1821.5 2708.3 1839.3 2711.1 C 1850.6 2712.9 1862.2 2713.5 1873.7 2714.2 C 1886.5 2715 1897.6 2710.4 1907.3 2702.2 C 1941.2 2673.3 1967.3 2638.1 1993.1 2600.4 Z" style="stroke: rgb(0, 0, 0); stroke-miterlimit: 10; stroke-width: 3.5px; fill: rgb(0, 255, 251);"/>
          <path class="st0" d="M 1377.8 2004.9 C 1333.6 2003.9 1330.9 2008 1347.9 2049.9 C 1353.3 2063.2 1361 2075.2 1370.7 2085.7 C 1402.5 2120 1443.1 2127 1480.5 2104 C 1509.6 2086.1 1527.1 2059.9 1535.2 2026.6 C 1538 2015 1534.4 2013 1524 2012.5 C 1475.1 2010.3 1426.4 2007.5 1377.8 2004.9 Z" style="stroke: rgb(0, 0, 0); stroke-miterlimit: 10; stroke-width: 3.5px; fill: rgb(0, 255, 247);"/>
          <path class="st0" d="M 1579.6 1034.5 C 1597.8 1005.1 1614.4 978.1 1631 951.1 C 1633.8 946.6 1637.2 942.5 1632.9 936.5 C 1613.8 909.3 1595 881.8 1575.1 852.9 C 1554.7 879.8 1536.3 903.9 1518 928.1 C 1514.8 932.3 1510.7 936.5 1515 942.5 C 1536.3 972.6 1557.4 1002.9 1579.6 1034.5 Z" style="stroke: rgb(0, 0, 0); stroke-miterlimit: 10; stroke-width: 3.5px; fill: url(#gradient-43-12);"/>
          <path class="st0" d="M 1241.3 868.1 C 1232.6 884.6 1226.8 901 1216.7 913.9 C 1188.3 950.2 1193.3 981.8 1223.4 1014.6 C 1239 1031.6 1252.8 1033.4 1265.2 1013.5 C 1275.5 996.9 1284.7 979.5 1295 962.8 C 1299.4 955.6 1299.7 949.9 1294.5 942.8 C 1276.8 918.8 1259.9 894.4 1241.3 868.1 Z M 1400.8 779 C 1418.4 748.7 1434.9 720.8 1450.8 692.5 C 1458.2 679.4 1437.4 643.1 1422.3 643.9 C 1400.1 645.2 1377.6 647.5 1356.4 655.1 C 1342.2 660.2 1334.1 683.6 1342 695.1 C 1360.8 722.4 1380 749.4 1400.8 779 Z" style="stroke: rgb(0, 0, 0); stroke-miterlimit: 10; stroke-width: 3.5px; fill: url(#gradient-43-13);"/>
          <path class="st0" d="M 1481.5 894.2 C 1503.2 864.6 1523.1 837.4 1543 810.3 C 1532.4 785.3 1513 765.9 1499.2 742.9 C 1498.2 741.2 1496.6 739.7 1495.6 738 C 1490 728.8 1486.1 731.8 1481.8 739.4 C 1467.5 764.7 1453 789.8 1438.3 814.8 C 1434.4 821.4 1433.9 826.8 1438.6 833.3 C 1452.3 852.3 1465.6 871.7 1481.5 894.2 Z" style="stroke: rgb(0, 0, 0); stroke-miterlimit: 10; stroke-width: 3.5px; fill: url(#gradient-43-14);"/>
          <path class="st0" d="M 1024.9 813.3 C 1004.2 851.4 983.8 888.9 963.3 926.3 C 960.3 931.8 960.9 936 965.2 940.8 C 978.6 955.8 991.4 971.3 1005.8 988.2 C 1017.4 965.9 1027.9 946.2 1038.1 926.3 C 1068.1 868 1068 868 1028.9 815.8 C 1028.5 815.4 1027.8 815.2 1024.9 813.3 Z" style="stroke: rgb(0, 0, 0); stroke-miterlimit: 10; stroke-width: 3.5px; fill: url(#gradient-43-15);"/>
          <path class="st0" d="M 1309.2 735.8 C 1295.5 762.7 1283.8 786.1 1271.6 809.2 C 1268.7 814.6 1268.4 818.7 1272.1 824 C 1290.6 850 1308.8 876.1 1328.4 904.2 C 1342.8 879.4 1355.6 857.3 1368.6 835.3 C 1372.2 829.2 1371.3 824.3 1367.3 818.6 C 1348.5 792.2 1330 765.6 1309.2 735.8 Z M 1888.4 982.7 C 1903.3 953.8 1916.2 928.5 1929.1 903.3 C 1952.7 857.2 1952.4 857.5 1912.2 823.8 C 1903.5 816.5 1900.5 819.2 1895.8 826.9 C 1879.8 853.6 1863.5 880.1 1847 906.6 C 1843.2 912.8 1840.6 917.8 1846 924.8 C 1859.9 942.9 1873.1 961.6 1888.4 982.7 Z" style="stroke: rgb(0, 0, 0); stroke-miterlimit: 10; stroke-width: 3.5px; fill: url(#gradient-43-16);"/>
          <path class="st0" d="M 1812 963.6 C 1797.2 987.6 1783.7 1009.5 1770.3 1031.4 C 1768.3 1034.7 1764.8 1038.2 1767.7 1042.5 C 1784.7 1067 1801.9 1091.5 1820.3 1117.8 C 1834.1 1090.7 1845.9 1067 1858.3 1043.6 C 1862.4 1035.9 1861.6 1030.1 1856.4 1023.4 C 1842 1004.6 1828.1 985.4 1812 963.6 Z" style="stroke: rgb(0, 0, 0); stroke-miterlimit: 10; stroke-width: 3.5px; fill: url(#gradient-43-17);"/>
          <path class="st0" d="M 1653.9 747.9 C 1639.3 767.3 1625.6 785.5 1611.7 803.6 C 1608.4 807.9 1607.5 811.5 1610.8 816.2 C 1628.8 841.9 1646.5 867.6 1665.4 894.9 C 1679.5 872.1 1691.8 852 1704.5 832.1 C 1708.3 826.1 1708.3 821.8 1703.9 815.9 C 1687.4 793.9 1671.2 771.5 1653.9 747.9 Z" style="stroke: rgb(0, 0, 0); stroke-miterlimit: 10; stroke-width: 3.5px; fill: url(#gradient-43-18);"/>
          <path class="st0" d="M 1576.6 766.5 C 1590.8 747.8 1604.1 730 1617.7 712.4 C 1621.6 707.3 1620.9 703.5 1617.7 698.1 C 1601.4 669.5 1580.6 649.5 1544.2 651.9 C 1534.2 652.5 1529.4 655.4 1525.8 663.5 C 1522.2 671.6 1513.6 677.8 1521.9 688.8 C 1540.5 713.6 1557.8 739.5 1576.6 766.5 Z" style="stroke: rgb(0, 0, 0); stroke-miterlimit: 10; stroke-width: 3.5px; fill: url(#gradient-43-19);"/>
          <path class="st0" d="M 1959.7 955.1 C 1946.9 979.8 1936.9 999.6 1926.4 1019.1 C 1922 1027.2 1924.9 1033 1929.7 1039.3 C 1942.7 1056.6 1957.8 1072.8 1967.9 1091.7 C 1982.3 1118.5 2003.4 1122.8 2032.3 1118 C 1999.1 1068.4 1971.8 1017.6 1959.7 955.1 Z" style="stroke: rgb(0, 0, 0); stroke-miterlimit: 10; stroke-width: 3.5px; fill: url(#gradient-43-20);"/>
          <path class="st0" d="M 1648.9 1133.3 C 1660.7 1113.8 1670.5 1097.5 1680.4 1081.4 C 1706.8 1038.1 1706.8 1038.1 1676.7 998.9 C 1676.3 998.4 1675.9 997.8 1675.6 997.2 C 1670.6 988.9 1666.3 989 1661.2 997.5 C 1646.5 1021.9 1631.5 1046 1616.5 1070.2 C 1613.1 1075.7 1611.3 1080.5 1615.9 1086.7 C 1626.6 1101.2 1636.8 1116.3 1648.9 1133.3 Z" style="stroke: rgb(0, 0, 0); stroke-miterlimit: 10; stroke-width: 3.5px; fill: url(#gradient-43-21);"/>
          <path class="st0" d="M 1098.9 918.9 C 1080.3 954.4 1062.7 988 1045.1 1021.6 C 1042.3 1026.9 1041.9 1031.4 1046.4 1036.3 C 1056.8 1047.7 1066.8 1059.5 1078.4 1072.7 C 1095.6 1039.7 1111.7 1008.6 1128 977.6 C 1131.2 971.6 1131.2 966.4 1127.1 960.6 C 1117.8 947.5 1109 933.9 1098.9 918.9 Z" style="stroke: rgb(0, 0, 0); stroke-miterlimit: 10; stroke-width: 3.5px; fill: url(#gradient-43-22);"/>
          <path class="st0" d="M 1809.6 871.4 C 1823.9 848.2 1836.5 824.9 1851.9 803.7 C 1864.1 786.9 1863.4 776.5 1846.8 762.6 C 1819.5 739.9 1820.6 738.6 1801.4 770.2 C 1791.3 786.9 1773.2 803.6 1773.1 820.3 C 1773 838.3 1794 853.4 1806 869.6 C 1806.4 870.1 1807.3 870.3 1809.6 871.4 Z" style="stroke: rgb(0, 0, 0); stroke-miterlimit: 10; stroke-width: 3.5px; fill: url(#gradient-43-23);"/>
          <path class="st0" d="M 940.1 1109.9 C 985.5 1046.4 985.7 1038.4 942.9 992.4 C 942.4 991.9 942 991.4 941.7 990.8 C 935.9 981.9 931.8 984.4 927.6 992.3 C 916.9 1012.6 905.9 1032.8 894.8 1052.9 C 891.1 1059.5 890.3 1064.7 897 1070.4 C 911.7 1083.2 925.7 1096.7 940.1 1109.9 Z M 1404.8 873.3 C 1397.6 885.5 1391.4 895.9 1385.2 906.3 C 1359 950.5 1359 950.5 1389.5 991.1 C 1389.9 991.6 1390.3 992.2 1390.7 992.8 C 1395.6 1001.7 1399.7 1002 1406.8 993.7 C 1452.8 939.7 1453 939.8 1411.6 882.4 C 1410 880.1 1408.3 878 1404.8 873.3 Z" style="stroke: rgb(0, 0, 0); stroke-miterlimit: 10; stroke-width: 3.5px; fill: url(#gradient-43-24);"/>
          <path class="st0" d="M 1093.2 820 C 1107.5 792.8 1119.2 767.9 1133.5 744.5 C 1142.3 730.1 1140.7 719 1128.6 709.7 C 1116.8 700.6 1083.9 705.7 1077.4 716.2 C 1051.2 758.3 1051.2 758.4 1079.3 800.1 C 1083.1 805.7 1087 811.2 1093.2 820 Z M 1720 672.3 C 1716.7 672.7 1713 672.3 1710.2 673.7 C 1692 683.2 1687 707.8 1699.5 724.9 C 1709.5 738.5 1719.8 751.9 1729.1 766 C 1735.4 775.4 1739.4 776.6 1745.6 765.8 C 1755.6 748.2 1766.3 731 1777.5 714.1 C 1782.1 707.1 1780.9 703.2 1775.7 696.8 C 1760.9 679.1 1741.9 673.1 1720 672.3 Z" style="stroke: rgb(0, 0, 0); stroke-miterlimit: 10; stroke-width: 3.5px; fill: url(#gradient-43-25);"/>
          <path class="st0" d="M 1159.5 915.3 C 1170.1 895.2 1178.3 874.9 1190.6 857.5 C 1208.7 831.9 1208.1 810 1185.4 788.5 C 1183.9 787.1 1182.9 785.3 1181.8 783.6 C 1176.3 774.8 1172.3 776.4 1168.1 784.9 C 1161.5 798.3 1156.4 812.9 1147.3 824.3 C 1121.5 856.9 1127.9 885.1 1155.3 912.2 C 1155.8 912.7 1156.4 913 1159.5 915.3 Z" style="stroke: rgb(0, 0, 0); stroke-miterlimit: 10; stroke-width: 3.5px; fill: url(#gradient-43-26);"/>
          <path class="st0" d="M 1479.7 979.6 C 1468 995 1458.6 1009.1 1447.5 1021.6 C 1437.9 1032.4 1442 1036.3 1452.7 1041.7 C 1479.5 1055.2 1502.8 1073.6 1523.4 1095.4 C 1526.9 1099.1 1531.1 1109.3 1536.4 1102.9 C 1542.3 1095.8 1554.8 1087.6 1546.5 1075.3 C 1524.9 1043.7 1502.6 1012.5 1479.7 979.6 Z" style="stroke: rgb(0, 0, 0); stroke-miterlimit: 10; stroke-width: 3.5px; fill: url(#gradient-43-27);"/>
          <path class="st0" d="M 1734.2 994.1 C 1748.5 970.9 1760.9 950.8 1773.3 930.7 C 1776.9 924.8 1780.4 919.5 1774.8 912.4 C 1765.5 900.8 1756.8 888.7 1748.2 876.6 C 1743.1 869.4 1739.6 870 1735.2 877.3 C 1724.1 895.8 1712.7 914.2 1701.3 932.5 C 1698.2 937.5 1697.5 941.8 1701.4 947.1 C 1712.2 961.7 1722.3 976.8 1734.2 994.1 Z" style="stroke: rgb(0, 0, 0); stroke-miterlimit: 10; stroke-width: 3.5px; fill: url(#gradient-43-28);"/>
          <path class="st0" d="M 1736.7 1086.2 C 1718.3 1116.1 1702 1143.4 1684.7 1170 C 1678.4 1179.7 1684.8 1184.6 1689.1 1191.2 C 1694.2 1199 1699 1194.3 1704.4 1191.7 C 1726.8 1180.7 1749.1 1169.3 1772 1159.1 C 1781.2 1155 1782.9 1151.5 1776.9 1143.3 C 1763.7 1125.4 1751.3 1107.1 1736.7 1086.2 Z" style="stroke: rgb(0, 0, 0); stroke-miterlimit: 10; stroke-width: 3.5px; fill: url(#gradient-43-29);"/>
          <path class="st0" d="M 925 891.8 C 946.9 851.5 968.7 811.3 990.7 771.3 C 995.4 762.8 990.7 756.5 985.5 751.6 C 978.4 744.9 974.8 753.7 971 757.1 C 948.8 777.2 930.5 800.5 915 826.1 C 894.5 859.8 894.5 859.8 920.3 888.6 C 921.1 889.5 922.5 890.1 925 891.8 Z M 1053.3 1121.5 C 1044 1110.5 1034.1 1099.7 1025.3 1088 C 1017.5 1077.6 1013.5 1081.1 1009 1090.5 C 1002.1 1105.1 994.3 1119.2 987.1 1133.7 C 984.4 1139.2 977.2 1144.7 984.6 1151.4 C 996 1161.7 1005.4 1174.3 1019.2 1181.8 C 1019.8 1182.1 1022 1181.1 1022.5 1180.2 C 1032.5 1161.3 1042.4 1142.2 1053.3 1121.5 Z" style="stroke: rgb(0, 0, 0); stroke-miterlimit: 10; stroke-width: 3.5px; fill: url(#gradient-43-30);"/>
          <path class="st0" d="M 1091.6 1374.6 C 1083.7 1316.3 1071.6 1294.6 1033.7 1269.8 C 1027.9 1280.5 1022.4 1291.2 1016.4 1301.7 C 1013 1307.7 1012.2 1311.9 1018.8 1317 C 1043 1335.5 1066.6 1354.6 1091.6 1374.6 Z M 889.1 1211.3 C 894 1202.3 897.8 1192.7 903.9 1184.9 C 919.1 1165.5 915.3 1150.5 895.7 1137.4 C 884.9 1130.2 876 1110.4 865.8 1114.9 C 855.4 1119.5 861.7 1139.5 861.2 1152.7 C 860.4 1176.2 857.1 1201.3 889.1 1211.3 Z" style="stroke: rgb(0, 0, 0); stroke-miterlimit: 10; stroke-width: 3.5px; fill: url(#gradient-43-31);"/>
          <path class="st0" d="M 955.6 1194.6 C 952.2 1200.9 949.1 1206.1 946.4 1211.4 C 927.3 1248.4 927.7 1247.9 961.9 1272.1 C 971.4 1278.9 973.7 1275.3 978 1267.7 C 997.4 1232.9 997.5 1232.9 968.4 1205.7 C 964.6 1202.1 960.5 1198.8 955.6 1194.6 Z" style="stroke: rgb(0, 0, 0); stroke-miterlimit: 10; stroke-width: 3.5px; fill: url(#gradient-43-32);"/>
          <path class="st0" d="M 1276.5 690.3 C 1253.8 696.2 1234.7 700.4 1216.2 706.2 C 1202.5 710.5 1198.2 719.8 1207.3 732.6 C 1215.9 744.7 1224.6 756.7 1234.6 770.6 C 1248.4 744.1 1261.5 719.1 1276.5 690.3 Z M 1588.5 1227.6 C 1622.9 1184.4 1622.9 1184.4 1594.5 1143.6 C 1592.2 1140.3 1589.9 1136.9 1587.5 1133.7 C 1585.5 1131.1 1582.1 1127.2 1579.7 1131.3 C 1574.1 1141.2 1561.8 1149 1568.6 1163.6 C 1577.8 1183.2 1583.6 1204 1588.5 1227.6 Z" style="stroke: rgb(0, 0, 0); stroke-miterlimit: 10; stroke-width: 3.5px; fill: url(#gradient-43-33);"/>
          <path class="st0" d="M 1163.8 1017.7 C 1148.2 1047.7 1133.1 1076.4 1118.3 1105.3 C 1116.4 1109.1 1111.5 1113.6 1117 1117.8 C 1124.4 1123.5 1125.9 1114.8 1129 1111.6 C 1140.4 1100.1 1150.6 1087.2 1162.6 1076.3 C 1190.2 1051.4 1190.6 1051.8 1168.4 1021.5 C 1167.6 1020.6 1166.4 1019.9 1163.8 1017.7 Z M 1075 1425.6 C 1045.5 1402.1 1020.8 1382.4 996 1362.9 C 993.3 1360.7 990 1356.4 986 1361.7 C 982.8 1365.9 982.8 1369.7 984.9 1374.8 C 1004.1 1421.7 1008.3 1424.7 1060.2 1425.6 C 1062.9 1425.7 1065.6 1425.6 1075 1425.6 Z" style="stroke: rgb(0, 0, 0); stroke-miterlimit: 10; stroke-width: 3.5px; fill: url(#gradient-43-34);"/>
          <path class="st0" d="M 1845.2 693.2 C 1856.2 703.4 1863.7 710.1 1871 717 C 1892.7 737.1 1900.3 735 1910.8 707.2 C 1913.1 701.1 1912.3 697.6 1906.1 697.3 C 1887.6 696.4 1869.4 689.5 1845.2 693.2 Z" style="stroke: rgb(0, 0, 0); stroke-miterlimit: 10; stroke-width: 3.5px; fill: url(#gradient-43-35);"/>
          <path class="st0" d="M 1896.4 1078.6 C 1887.5 1096.3 1880 1111.1 1870.5 1130 C 1890.3 1122.9 1908.1 1126.5 1925.5 1118.2 C 1915.8 1104.9 1907.1 1093.2 1896.4 1078.6 Z" style="stroke: rgb(0, 0, 0); stroke-miterlimit: 10; stroke-width: 3.5px; fill: url(#gradient-43-36);"/>
          <path class="st0" d="M 872.3 988.6 C 877.5 979.4 881.8 969.5 888.2 961.2 C 901.9 943.3 895.5 931 878.1 919.6 C 871.7 942.2 870.1 964.8 872.3 988.6 Z" style="stroke: rgb(0, 0, 0); stroke-miterlimit: 10; stroke-width: 3.5px; fill: url(#gradient-43-37);"/>
          <path class="st0" d="M 1091.4 1166.7 C 1078.8 1177.4 1074.4 1192.5 1066.2 1205.3 C 1057.3 1219.1 1060.1 1228.2 1076.5 1234.2 C 1079.4 1210.7 1088.1 1189.5 1091.4 1166.7 Z" style="stroke: rgb(0, 0, 0); stroke-miterlimit: 10; stroke-width: 3.5px; fill: url(#gradient-43-38);"/>
          <path class="st0" d="M 2095.9 1626.5 C 2095.8 1536.2 2169.2 1462.7 2258.9 1463.3 C 2348.2 1463.9 2420.6 1536.6 2420.9 1625.8 C 2421.2 1715.6 2347.6 1789 2257.4 1788.6 C 2167.8 1788.3 2096 1716.3 2095.9 1626.5 Z" style="stroke: rgb(0, 0, 0); stroke-miterlimit: 10; stroke-width: 3.5px; fill: url(#gradient-43-39);"/>
          <path class="st0" d="M 2370.4 1625.6 C 2370.1 1562.7 2320.5 1513.8 2257.5 1514.4 C 2194.6 1515 2145 1564.8 2145.4 1626.9 C 2145.8 1688.6 2196.9 1739.1 2258.8 1738.9 C 2321 1738.6 2370.7 1688.1 2370.4 1625.6 Z" style="stroke: rgb(0, 0, 0); stroke-miterlimit: 10; stroke-width: 3.5px; fill: rgb(0, 255, 234);"/>
          <path class="st0" d="M 877.5 2706.8 C 802.9 2706.9 742.8 2646.6 743.4 2572.1 C 744 2497.9 804.6 2437.4 878.6 2437.1 C 953.2 2436.8 1015.3 2498.9 1014.7 2573.3 C 1014.1 2648.9 954.8 2706.6 877.5 2706.8 Z" style="stroke: rgb(0, 0, 0); stroke-miterlimit: 10; stroke-width: 3.5px; fill: rgb(241, 115, 134);"/>
          <path class="st0" d="M 878.5 2657.2 C 926.8 2657.3 963.9 2620.9 964.2 2573.2 C 964.5 2525.5 927.5 2488.1 879.6 2487.8 C 831.7 2487.5 794.3 2524.3 794 2572 C 793.6 2619.8 830.6 2657.1 878.5 2657.2 Z" style="stroke: rgb(0, 0, 0); stroke-miterlimit: 10; stroke-width: 3.5px; fill: rgb(0, 255, 238);"/>
        </g>
      </g>
    </g>
  </g>
</svg>