<?xml version="1.0" encoding="utf-8"?>
<svg viewBox="389.72 -1642.663 2375.677 2972.276" xmlns="http://www.w3.org/2000/svg" xmlns:xlink="http://www.w3.org/1999/xlink">
  <defs>
    <linearGradient id="gradient-4-0" gradientUnits="userSpaceOnUse" x1="1801.724" y1="2274.356" x2="1801.724" y2="5177.277" gradientTransform="matrix(0.999286, 0.0378, -0.010246, 0.206689, 21.179234, 1069.24548)" xlink:href="#gradient-4"/>
    <linearGradient id="gradient-4">
      <stop style="stop-color: rgb(12, 245, 136);" offset="0"/>
      <stop style="stop-color: rgb(248, 5, 5);" offset="1"/>
    </linearGradient>
    <radialGradient gradientUnits="userSpaceOnUse" cx="983.79" cy="865.273" r="153.406" id="gradient-2-2" xlink:href="#gradient-2"/>
    <linearGradient id="gradient-2">
      <stop style="stop-color: rgb(102, 0, 153);" offset="0"/>
      <stop style="stop-color: rgb(250, 246, 2);" offset="1"/>
    </linearGradient>
    <linearGradient gradientUnits="userSpaceOnUse" x1="1577.403" y1="1.38" x2="1577.403" y2="1525.198" id="gradient-2-0" gradientTransform="matrix(0.99995, 0.009975, -0.01616, 1.003239, 62.763056, -23.666491)" xlink:href="#gradient-2"/>
    <linearGradient id="gradient-36-1" gradientUnits="userSpaceOnUse" x1="1530.454" y1="2022.937" x2="1530.454" y2="3126.964" gradientTransform="matrix(-0.978442, -0.206524, 0.04608, -0.425857, 3310.314969, 2528.484628)" xlink:href="#gradient-36"/>
    <linearGradient id="gradient-36">
      <stop style="stop-color: rgb(0, 255, 221);" offset="0"/>
      <stop style="stop-color: rgb(102, 0, 153);" offset="1"/>
    </linearGradient>
    <linearGradient id="gradient-36-0" gradientUnits="userSpaceOnUse" x1="1265.342" y1="8833.43" x2="1265.342" y2="11063.199" gradientTransform="matrix(-0.999676, 0.025425, 0.003468, -0.443009, 2865.629237, 5692.337635)" xlink:href="#gradient-36"/>
    <radialGradient gradientUnits="userSpaceOnUse" cx="2026.248" cy="1574.593" r="226.856" id="gradient-2-6" xlink:href="#gradient-2"/>
    <radialGradient gradientUnits="userSpaceOnUse" cx="1926.116" cy="2549.415" r="222.661" id="gradient-2-7" xlink:href="#gradient-2"/>
    <radialGradient gradientUnits="userSpaceOnUse" cx="1781.066" cy="1103.663" r="283.366" id="gradient-2-8" xlink:href="#gradient-2"/>
    <linearGradient gradientUnits="userSpaceOnUse" x1="1058.361" y1="655.698" x2="1058.361" y2="1211.382" id="gradient-2-14" xlink:href="#gradient-2"/>
    <radialGradient gradientUnits="userSpaceOnUse" cx="409.095" cy="1942.663" r="153.2" id="gradient-2-12" xlink:href="#gradient-2"/>
    <linearGradient gradientUnits="userSpaceOnUse" x1="574.539" y1="1737.631" x2="574.539" y2="2328.868" id="gradient-2-20" xlink:href="#gradient-2"/>
    <radialGradient gradientUnits="userSpaceOnUse" cx="1526.02" cy="541.583" r="73.453" id="gradient-2-17" xlink:href="#gradient-2"/>
    <radialGradient gradientUnits="userSpaceOnUse" cx="1615.711" cy="1107.87" r="65.834" id="gradient-2-18" xlink:href="#gradient-2"/>
    <radialGradient gradientUnits="userSpaceOnUse" cx="964.605" cy="1542.663" r="106.865" id="gradient-4-2" xlink:href="#gradient-4"/>
    <linearGradient gradientUnits="userSpaceOnUse" x1="545.71" y1="878.536" x2="545.71" y2="1285.036" id="gradient-2-4" xlink:href="#gradient-2"/>
    <radialGradient gradientUnits="userSpaceOnUse" cx="1458.085" cy="972.32" r="51.428" id="gradient-2-22" xlink:href="#gradient-2"/>
    <radialGradient gradientUnits="userSpaceOnUse" cx="1584.897" cy="826.174" r="54.167" id="gradient-2-23" xlink:href="#gradient-2"/>
    <radialGradient gradientUnits="userSpaceOnUse" cx="1434.478" cy="833.011" r="55.614" id="gradient-2-24" xlink:href="#gradient-2"/>
    <radialGradient gradientUnits="userSpaceOnUse" cx="1258.771" cy="2677.005" r="45.098" id="gradient-2-25" xlink:href="#gradient-2"/>
    <radialGradient gradientUnits="userSpaceOnUse" cx="1628.781" cy="660.017" r="48.184" id="gradient-2-26" xlink:href="#gradient-2"/>
    <radialGradient gradientUnits="userSpaceOnUse" cx="899.171" cy="2689.963" r="65.434" id="gradient-2-27" xlink:href="#gradient-2"/>
    <radialGradient gradientUnits="userSpaceOnUse" cx="1478.197" cy="696.852" r="67.374" id="gradient-2-28" xlink:href="#gradient-2"/>
    <radialGradient gradientUnits="userSpaceOnUse" cx="1606.779" cy="1008.059" r="186.781" id="gradient-2-29" xlink:href="#gradient-2"/>
    <radialGradient gradientUnits="userSpaceOnUse" cx="1423.95" cy="1088.725" r="333.548" id="gradient-2-11" xlink:href="#gradient-2"/>
    <radialGradient gradientUnits="userSpaceOnUse" cx="1601.173" cy="958.476" r="48.347" id="gradient-2-31" xlink:href="#gradient-2"/>
    <radialGradient gradientUnits="userSpaceOnUse" cx="2065.899" cy="2057" r="91.804" id="gradient-2-33" xlink:href="#gradient-2"/>
    <linearGradient gradientUnits="userSpaceOnUse" x1="2062.182" y1="2096.2" x2="2062.182" y2="2177.908" id="gradient-2-5" xlink:href="#gradient-2"/>
  </defs>
  <g id="Layer_1" transform="matrix(1, 0, 0, 1, 389.720282, -1642.66311)"/>
  <g id="Layer_2" transform="matrix(1, 0, 0, 1, 389.720282, -1642.66311)">
    <g>
      <path class="st0" d="M 536 2043.1 C 499.8 2003.7 500.8 1960.3 517.6 1915.6 C 522.7 1902.1 520.7 1895.9 508.9 1887.7 C 445.6 1843.5 399.6 1785.1 373.3 1712.3 C 340.3 1620.9 363.3 1536.2 407.3 1454.8 C 467.7 1343.2 558.2 1266.1 676.5 1221 C 680.3 1219.6 684 1217.8 690 1215.1 C 665.9 1202.4 642.6 1192.1 621.5 1177.8 C 524.3 1112.2 473.1 1021.5 473.1 903.8 C 473.1 835.5 476.1 767.4 500.9 702.1 C 518.2 656.4 545.7 619.2 587 593.4 C 615.7 575.5 626.1 550.3 621.6 518.6 C 614.2 467 606.9 415.5 626 364.9 C 675.9 232.9 762.3 137.7 900.6 96.2 C 990.8 69.1 1082.1 60.1 1174.4 85.6 C 1223.9 99.3 1266.8 125.5 1304.4 160.3 C 1311.1 166.5 1315.9 171.4 1326.6 164.4 C 1396.7 118.5 1475.4 96.4 1557.4 86.5 C 1668 73 1779.3 67.7 1890.7 69.8 C 1951.5 70.9 2011.9 77.1 2070.8 94.5 C 2213.6 136.9 2299.7 234.5 2342.3 373.9 C 2374.5 479.1 2383.7 586.2 2368.6 695.7 C 2358.1 771.4 2351.3 847.6 2334.2 922.2 C 2299.6 1073.1 2210.1 1182.4 2077.1 1258.1 C 2071.9 1261 2066.7 1263.9 2057.8 1268.7 C 2096.6 1274.5 2130.5 1283.2 2161.6 1300.3 C 2233 1339.7 2271.8 1403.3 2288.7 1480.1 C 2316.2 1605.2 2307.1 1728.5 2259.4 1847.9 C 2254.3 1860.6 2255.6 1867.7 2265.3 1877.7 C 2403.4 2018.8 2377.6 2246.4 2211.4 2353 C 2195.8 2363 2189.8 2370.9 2194.3 2391.1 C 2209.1 2458.6 2189.8 2521.1 2158 2580 C 2133.3 2625.6 2103.7 2668.4 2072.2 2709.6 C 2041.7 2749.5 2002.2 2771.4 1951.9 2779.3 C 1883.7 2790 1815.3 2796.6 1746.4 2798.9 C 1738.2 2799.2 1732.5 2802.8 1726.1 2806.9 C 1626.4 2872.2 1523.7 2877.5 1418.1 2821.5 C 1410.5 2817.5 1404.5 2811 1396 2822.3 C 1351.7 2880.8 1288 2897.9 1219.1 2901.4 C 1162.7 2904.2 1109.2 2891.8 1059 2865.9 C 1051.7 2862.1 1045.6 2857.8 1037.6 2866.5 C 1008.5 2897.8 970.5 2909.4 929.4 2913.7 C 870.8 2919.9 812.1 2919.7 753.3 2917.2 C 745.1 2916.8 738.2 2916 731.6 2924.1 C 692.3 2972.9 640.8 2981.6 584.1 2963.7 C 526.6 2945.5 494.4 2903.8 485.6 2844.5 C 483.5 2830.5 488.8 2812.5 481.8 2803.1 C 477.1 2796.8 456.4 2803.5 443 2802.6 C 366.1 2797.7 300.3 2751.2 282.3 2689.2 C 269.8 2646 277.1 2603.9 291.3 2562.6 C 305.3 2521.7 324.4 2483 347.8 2447 C 377.8 2400.9 382.7 2352.4 373.3 2299.9 C 367 2265 362.2 2229.8 362.3 2194.2 C 362.4 2157.7 377 2128 404.2 2104.4 C 441.5 2071.8 487.1 2055.9 536 2043.1 Z" style="stroke: rgb(0, 0, 0); stroke-miterlimit: 10; stroke-width: 3.5px; fill: url(#gradient-4-0);"/>
      <path class="st0" d="M1036.4,829.4c-15-4.3-31.2-6.3-44.9-13.3 c-30.7-15.8-60.8-11.6-90.7-0.4c-41.5,15.5-71.2,59.4-70.4,101.4c0.9,49.7,24.2,83.3,67.3,99.2c11.7,4.3,15.9,3.3,19.4-9.9 c13.3-51.6,38.8-97.3,73.7-137.4c13.2-15.2,25.9-31.5,45.4-39.7c24.1-24.9,54.6-39.4,85.9-52.8c5.2-2.2,13.8-2.1,14.3-9.7 c1.1-17.7,2.7-40.9-7.9-50.5c-11.2-10.1-34.7-1-45.7,11.5C1057.6,756.5,1040.5,790.4,1036.4,829.4z" style="stroke: rgb(0, 0, 0); stroke-miterlimit: 10; stroke-width: 3.5px; fill: url(#gradient-2-2);"/>
      <path class="st0" d="M941.2,1785.6 c31.6,4.3,62.9,4.3,94.2,5.6c11.1,0.5,17.3-2.7,23.4-11.7c38-56.6,91.1-93.8,155.3-114.3c74.1-23.7,149.2-29,222.3,2.9 c64.9,28.3,101.6,78.3,105.4,150.5c0.6,11.5-12.2,30.7,14.7,29.7c0.8,0,2.3,1.8,2.3,2.8c0.3,12.9,0.8,25.9,0.6,38.9 c-0.2,11.6-10.1,5.6-15.4,8c-3.8,1.7-4,4.9-4.6,8.2c-12.9,74.5-62.7,113.7-132.3,123.1c-102.6,13.9-206.1,7.5-307.7-11.1 c-54-9.9-86.5-48.9-98.3-103.6c-4.2-19.6-3.5-39.4-4.6-59.1c-0.3-5.1,2.7-13.5-3.9-14.2c-21.7-2.4-43.5-3-65.3-3.8 c-1.9-0.1-5.1,2.7-5.8,4.9c-5.9,17.8-15.9,33.7-12.2,54.8c5.6,32.1,9.9,64.9-2.2,97.1c-6.9,18.2-19.2,33.3-30,49.6 c57.4,17.7,76,34.6,94.9,90.5c22.9,67.9,38.9,137.6,48.2,208.8c4.1,31.5,4.7,30.9-26.5,34.2c-15.2,1.6-20.7-2.7-22.5-18.6 c-8.4-74.1-25.9-146.3-50-216.9c-8.3-24.4-22.3-42.3-49-46.5c-15.5-2.5-31.2-4.7-46.8-4.8c-80.6-0.5-161.2-0.8-241.8,0 c-52,0.5-99.1,16.9-141.2,47.7c-22.3,16.3-32.9,37.9-30.1,65.5c3,29.2,5.2,58.5,10.4,87.3c11.8,65.1,5.3,126.3-32.2,182.6 c-8.7,13-15.9,27.1-23.1,41c-18.4,35.9-35.2,72.4-40.4,113.1c-4.5,35.4,3.2,67.1,31.7,90.4c32.6,26.6,70.4,40.4,112.4,33.5 c65.8-10.9,115.7-46.4,147.3-105.8c10.5-19.7,22.8-37.2,42.9-48c27.4-14.5,56.7-13.7,86-9.4c46.4,6.9,92.7,15,139.1,22.4 c41.7,6.6,83.4,13.2,125.2,19.1c36.9,5.2,73.9,9.2,110.9,13.8c16.4,2,26.7-4.7,34.1-19.7c14.5-29.1,38.1-45.7,71.3-47.2 c77.9-3.5,155.7,0.1,233.6-0.3c4.5,0,11.1-1.1,11.4,5.4c0.5,13.6,2.4,28.2-1.7,40.6c-3.4,10.2-17,3.9-26,4.4 c-9,0.5-13.8,1.4-11.8,12.6c7.2,39.5,6.5,78.8-4.8,117.6c-2.3,7.9-0.1,12.8,6.9,16.9c72.9,42.2,147.9,47.7,225.3,13 c7.3-3.3,11.2-5.9,5.2-14.6c-10.2-14.5-11.6-31.7-12.2-48.9c-5.8-157.3,49.8-289.7,162.5-398.6c10.2-9.8,10.4-15.1,1-25.8 c-117.7-133.9-102.4-329,34.1-443.7c4.7-4,12.4-5.9,13-14c-61.3-7.6-90.3-48.7-107.1-102.2c-15.6-49.5-4.9-98.5,2.8-147.8 c12-77,30.9-151,80.3-213.9c12.9-16.5,27.2-31.8,43.7-49.2c-28.9,2.6-54.4,6-80,7c-94.1,3.8-184.6-14.5-273.1-45.1 c-6.8-2.3-13.9-8.1-20.6-0.4c-10.2,11.7-20.5,22.2-20.6,40.4c-0.5,46.3-11.3,90.6-33.5,131.7c-14.9,27.6-34.6,51-62.9,65.5 c-10.8,5.5-18.5,13.1-25.6,22.6c-36.6,49.2-83.2,84.5-143.4,99.4c-100.3,24.8-171.4-23.5-181.9-125.9 c-4.7-45.3-1.9-91.2,5.3-136.5c0.9-5.3,4-10-2.7-14.1c-5.4-3.3-9.4-3.5-14.5,0.6c-27.4,21.8-61,29.6-93.1,40.9 c-54.9,19.4-108.8,41.2-150.8,83.7c-58.2,58.8-50.1,159,16.2,207.5c10,7.3,17,9.8,27.3-1.8c19.1-21.6,43.9-34.8,73.3-36.5 c33.1-1.9,49.2,14.2,50.2,47.3C954,1738.4,946.3,1761.2,941.2,1785.6z" style="stroke: rgb(0, 0, 0); stroke-miterlimit: 10; stroke-width: 3.5px; fill: url(#gradient-2-0);"/>
      <path class="st0" d="M2028.5,1224.2c3.3-0.5,5.4-0.3,7-1.1 c105.2-55.1,185.1-133.6,229.3-245.9c25.6-65,32.5-133.6,42.9-201.7c18.5-120.8,27.1-240.6-5.8-361.4 c-39.1-143.5-119.9-242.9-269.3-277.8c-43.4-10.1-87.5-15.4-131.9-15.8c-133.2-1.3-266.6,0.1-397.8,26.7 c-138.5,28.1-240.1,104.7-293.9,237.9c-25.3,62.7-33.9,129.2-34.8,196.5c-1.4,98.1,14.4,194.5,32.2,290.5 c19,102.6,66.2,189.9,143.6,260.4c5.1,4.7,9.6,11.2,18.7,12.1c2.5-26.3,4.6-51.4,13.3-75.3c1.9-5.2,1.6-10.4-2.4-15.3 c-26.6-32.7-29.2-69.8-17.2-108.4c4.9-15.8,2.1-27.6-7.5-40.9c-33.3-46.3-38-119.5,3.7-163.1c4.3-4.5,5.2-9.2,4.1-14.9 c-8.5-43.5,12.5-72.1,48-92.4c9.3-5.4,10.5-9.8,6.1-19.2c-13.6-29.3-15.6-60.5-13.2-92.2c4.2-55.6,36.5-92.8,89-102.6 c27-5,54.3-5.6,81.5-3.4c41.1,3.4,61.4,21.6,69.4,61.7c2.7,13.3,4.8,27,5.2,40.5c0.3,10.3,4.7,15.6,13.1,20.6 c35.6,21,57.5,52.3,63.3,93.2c2.1,14.7,8.4,20,21.4,24.7c49.2,17.7,65.9,46,60.1,97.6c-0.7,6.6-3.2,13.2,2.4,19.4 c31.4,34,40.8,74.6,33.1,119.4c7.2,1.1,11.5-2.9,16.1-5.3c88.7-44.8,201.4,8.5,236.2,80.7c34.1,70.7,23.5,138.1-21.2,200.8 C2060.1,1188.8,2044.2,1205.5,2028.5,1224.2z" style="stroke: rgb(0, 0, 0); stroke-miterlimit: 10; stroke-width: 3.5px; fill: url(#gradient-36-1);"/>
      <path class="st0" d="M1061.8,122.2c-10.2,0-20.5,0.4-30.7-0.1c-11.1-0.5-21.6,2.4-32.3,3.9 c-124.2,16.9-225.2,69.6-290.4,181.7c-33.2,57.2-53.8,115-39.2,182.8c13.8,64-4.2,117.1-64.2,151.8 c-24.3,14.1-40.4,36.7-50.6,62.7c-33.7,86.1-42.8,175.9-23.1,265.4c34.4,156.2,207.1,249.3,375,210.5c8.8-2,8.2-5.6,6.5-12.7 c-5.4-22-8.5-44.8-6.4-67c2.3-23.8-7-32.9-28.5-39.5c-31.4-9.7-57-28.9-73.2-58.7c-32.8-60.3-35.5-120.8,6-177.2 c42.8-58.1,103.1-78.5,173.5-66.1c15.3,2.7,21.7-0.1,27.4-14c19.2-46.8,51.5-78.1,104.4-82.1c12.6-1,9.3-9.2,9.2-16.1 c-1.1-46.4-1.5-92.7,3.7-139.1c12.7-114.2,52.5-215.7,137.4-296.1c9.5-9,6.9-13-1.2-20.1C1206.7,141.3,1138.7,118.6,1061.8,122.2z M1789,2092.4c0,144.4,114.6,259.4,258.4,259.2c140.6-0.1,257.3-116.6,256.5-257.7c-0.8-144.8-113.7-255-243.7-256.7 C1891.5,1835.1,1791.6,1951.8,1789,2092.4z" style="stroke: rgb(0, 0, 0); stroke-miterlimit: 10; stroke-width: 3.5px; fill: url(#gradient-36-0);"/>
      <path class="st0" d="M1917.2,1790.7c37.7,6.1,72.1-0.6,106.7-3.7c11.8-1.1,21.3-4.3,28.6-13.2 c34.2-42.3,44.5-90,28.8-142c-7.4-24.5-23.2-31-48.1-22.9c-20.6,6.7-39.8,17.5-51.6,35.3c-14.1,21.3-26.8,19.9-42.9,4.3 c-1.9-1.9-4.3-3.4-6.8-4.6c-8.3-4.2-8.3-9.5-2.9-16.3c25.9-33.1,56.7-59.4,98.6-69.2c47.6-11.1,88,12,102,58.9 c16.8,55.8,9.6,109.5-18.5,160.2c-5.8,10.4-6.2,14.7,6.8,17.2c28.4,5.5,55.1,16.1,79.7,31.2c11.6,7.1,15.4,4.7,19.9-7.4 c17.8-47.6,29.5-96.7,33.2-147.3c5.8-79.6,2.9-158.2-29-233.3c-49.9-117.9-203.3-157.3-299.1-75c-51.6,44.3-85.2,100.8-99.8,167.7 c-6.1,28-11.2,56.2-16.2,84.4c-8.5,47.4-14.2,94.7,11.1,139.6c13.5,24,32.4,38,61.2,36.4 C1892.5,1790.1,1906.2,1790.7,1917.2,1790.7z" style="stroke: rgb(0, 0, 0); stroke-miterlimit: 10; stroke-width: 3.5px; fill: url(#gradient-2-6);"/>
      <path class="st0" d="M1703.5,2694.6c0,10.2-0.1,20.5,0,30.7c0.1,18.2,7.6,25.8,27.5,25.2 c73-2.4,145.3-10.1,217.4-21.6c35.5-5.7,62.1-22,83.3-49.4c30.5-39.4,58.6-80.5,82.4-124.3c25.5-46.9,40.7-96.5,32.4-151.2 c-2.1-13.6-6.3-16.7-19.9-13.2c-87.7,22.6-170.4,10.5-247.1-38.3c-9-5.8-14.5-5.9-22.6,1.6 C1758.6,2446.4,1706.7,2559.5,1703.5,2694.6z" style="stroke: rgb(0, 0, 0); stroke-miterlimit: 10; stroke-width: 3.5px; fill: url(#gradient-2-7);"/>
      <path class="st0" d="M1497.7,1223.3c111.6,45.6,225,71.6,344.8,58.4c16.7-1.8,33.7-2.8,48.9-12.8 c53-34.7,100.3-75.5,139.4-125.6c70.3-90.2,25.3-203.1-87.7-220.1c-73-11-148.6,70.1-132.7,142.3c5.6,25.6,18.2,34.4,44.3,30.2 c20.7-3.3,38.9-12.5,55.3-25.2c27.9-21.5,27.8-21.6,52.2,3.8c0.5,0.5,0.9,1,1.5,1.4c6.9,4.9,5.4,9.1-0.1,14.5 c-30.6,30-65.5,51.6-108.9,56.1c-46.9,4.9-82.7-21.7-92.6-67.9c-6-28-4.1-55.6,5.2-82.8c1.6-4.6,7.3-12.5-5-12.4 c-16.6,0.1-33.2,0-49.8,0c28.6,92.6,20.6,122.1,10.8,168.9c-18.8,89.7-108.8,124.1-173.4,67.4 C1524.5,1197.5,1524.5,1197.5,1497.7,1223.3z" style="stroke: rgb(0, 0, 0); stroke-miterlimit: 10; stroke-width: 3.5px; fill: url(#gradient-2-8);"/>
      <path class="st0" d="M903.6,1718c-19.1,2.5-31.6,12.3-42.4,25c-10.1,11.9-22.1,19.8-38.7,19.6 c-22.3-0.3-41.7-8.1-57.8-22.7c-55.5-50.3-77.9-112.8-63.2-186.4c13.6-68.4,60.7-110.8,118.7-143.2 c45.5-25.3,94.3-42.5,143.6-58.5c33.6-10.9,58.5-32,70.3-66c7.6-21.9,3.8-26.6-19.3-27.7c-33.6-1.6-67,0.7-99.8,7.9 c-124.6,27.5-222.1,91.6-271.1,213.3c-42.9,106.4-18.7,207.4,35.5,303.8c5.7,10.1,13.6,7.9,21,6.7c29.9-4.7,59.9-3.6,89.9-3.9 c31.5-0.3,61.1,5.2,87.2,27.4C890,1782.1,899.4,1751.3,903.6,1718z" style="stroke: rgb(0, 0, 0); stroke-miterlimit: 10; stroke-width: 3.5px; fill: url(#gradient-2-14);"/>
      <path class="st0" d="M1281.8,1847.2c62.2,0,124.3-0.6,186.5,0.4 c16.6,0.3,21.3-6.3,22.4-21.2c3.1-43.4-21.8-86.2-64.4-107.8c-45.7-23.1-94.2-25.9-143.8-18.1c-84.7,13.3-152.9,51.9-195.7,129.1 c-7.6,13.8-6.3,18.1,10.7,17.9C1158.8,1846.7,1220.3,1847.2,1281.8,1847.2z" style="stroke: rgb(0, 0, 0); stroke-miterlimit: 10; stroke-width: 3.5px; fill: rgb(193, 93, 242);"/>
      <path class="st0" d="M1211.7,1377.1c112.4,0,184.6-35.8,243.9-100.5 c8.2-8.9,8.1-13-3.7-18.3c-45-20.4-86.9-46-124.2-78.6c-10.3-9-15.4-7.5-24.3,1.7c-48.5,49.8-107.3,78.9-176.8,85.2 c-11.5,1-25.2-2.3-34.2,2.8c-10.5,6-6,22.3-10.7,33.3c-2.1,5-3.2,10.7-6.1,15.2c-6.5,10-1.4,14,7.1,18.4 C1130.5,1361.3,1180.7,1377.3,1211.7,1377.1z" style="stroke: rgb(0, 0, 0); stroke-miterlimit: 10; stroke-width: 3.5px; fill: rgb(3, 242, 246);"/>
      <path class="st0" d="M758.3,1835.8c-38.1,1-86.9,4.4-131.5,28.9c-46.1,25.3-74.4,72.8-68.9,114.1 c2.6,19.2,11.8,30,31.8,29.8c16.3-0.2,32.7,0.2,48.9-3.1c41.3-8.2,52.7-22.9,45-63.9c-3.4-17.7,2-23.7,18.5-24.4 c5.4-0.2,10.6-2.4,16-3.5c9.1-1.8,12.9,1.1,14.4,11.2c3.9,27.4,5.7,54.3-7.2,80.1c-2.3,4.6-5.4,8.9,1.6,13.6 c26.7,18.1,87,12,111.9-10.5c26.1-23.5,26.2-52.9,23.9-84.3C856.7,1846.3,846.2,1835.9,758.3,1835.8z" style="stroke: rgb(0, 0, 0); stroke-miterlimit: 10; stroke-width: 3.5px; fill: url(#gradient-2-12);"/>
      <path class="st0" d="M825.9,2868 c31.5,1.9,62.7-1.1,94-3.7c48-4,87.8-21,105.2-70.4c11.5-32.7,13.1-66.7,9.9-101c-0.7-7.3-3-11.1-10.6-12.1 c-9-1.2-9.1,4.2-10.6,10.7c-12.8,55.2-51.5,87.1-103.6,86.2c-79-1.4-110.3-24.8-125.1-90c-3.3-14.7,8.8-35.1-9.7-43.4 c-14.4-6.5-32-5.8-48.2-8.1c-3.4-0.5-6.8-0.5-10.2-0.6c-30.8-0.5-55.3,19-62.5,48.6c-1.7,7.1,2.6,8.1,6.6,10.3 c62,34.3,90.3,88.6,92.2,157.8c0.3,11.9,4.4,15.8,15.3,15.7C787.7,2867.8,806.8,2868,825.9,2868z" style="stroke: rgb(0, 0, 0); stroke-miterlimit: 10; stroke-width: 3.5px; fill: rgb(246, 222, 3);"/>
      <path class="st0" d="M817.2,1243.1 c-9-6.3-15.7-4.5-22.3-3.5c-51.6,7.9-99.8,26.2-146.5,48.7c-7.8,3.7-14.9,9.8-20.8,16.2c-134.3,144.9-158.8,340.7-61,508.4 c10,17.2,18,23.2,34.6,8.9c6-5.2,14.2-8.3,21.8-10.9c11.2-3.8,10.8-8.7,5.2-17.8c-13-20.9-22.2-43.8-30.3-67 C549.3,1587,569.1,1460,667.4,1348C708.1,1301.7,758.9,1268.7,817.2,1243.1z" style="stroke: rgb(0, 0, 0); stroke-miterlimit: 10; stroke-width: 3.5px; fill: url(#gradient-2-20);"/>
      <path class="st0" d="M1176.3,986.7c0-9.2,1.5-17-0.2-24.1 c-10.4-43.6-22.3-87-27.9-131.6c-1.1-8.5-5.9-9-13.2-5.7C1049,864.9,991,928.7,965.2,1020.5c-2.7,9.5-1.7,15.1,10.1,16.7 c15.5,2.1,30.6,6.5,46,9.3c37.5,6.7,74.8,14.5,113.2,14.8c20.2,0.1,32.3-6.7,34.9-27.7C1171.5,1017.4,1174.1,1001.3,1176.3,986.7z M1270.7,1897.3c-68.3,0-136.5,0.4-204.8-0.3c-14.8-0.1-17.6,3.9-13.3,17.6c12.4,39.4,42.9,54.3,79.9,60.3 c38.5,6.2,77.6,5.6,116.4,7.2c44.3,1.8,88.7,6,133,1.1c45.7-5.1,84.5-21.4,104-67.5c5.8-13.7,4.1-18.9-12.5-18.7 C1405.9,1897.7,1338.3,1897.3,1270.7,1897.3z" style="stroke: rgb(0, 0, 0); stroke-miterlimit: 10; stroke-width: 3.5px; fill: rgb(193, 93, 242);"/>
      <path class="st0" d="M1217.8,1049.9c-15.6,53.8-45.6,60.4-84.9,60.8c-17,0.2-34-1.4-50.9-3.3 c-37.3-4.1-73.9-12.1-110.3-20.7c-10.9-2.6-16.3-1.1-15.7,12.2c1,23.9,2.7,47.5,8.7,70.8c2.3,8.8,6.4,14.3,14.4,18 c39.4,18.2,80,30.6,123.9,29.9c64.6-1,119-25.6,164.3-71c5.5-5.5,15.1-10.5,5.1-21.5C1252.4,1102.9,1236,1077.8,1217.8,1049.9z M1349.7,2683.9c0.2,0,0.5,0,0.7,0.1c0,9.6,0.3,19.1-0.1,28.7c-0.8,20.3-8.7,37.8-25.8,48.8c-38.3,24.6-79.3,21.8-120.1,7.6 c-31.9-11.1-36.5-39.4-39.2-68.1c-0.1-1.4-0.3-2.7-0.6-4.1c-1-5.3-2.9-9.1-9.5-7c-18.7,6-37.9,4.3-56.9,2.4 c-10.3-1-13.2,2.1-12.2,12.3c3.3,33.1-2,65.5-10.9,97.1c-3.3,11.7-1,16.4,9.6,21.7c54,26.4,110.5,33.4,169.5,24.1 c127.5-20,144.5-128.1,128.1-209.9c-2.2-11-9.2-11.3-18-11.5c-10-0.3-10.8,5.7-11.4,13C1352,2653.9,1350.8,2668.9,1349.7,2683.9z M703.2,2849.1c-3.8-48.2-22-87.6-67.4-111c-11.6-5.9-21-6.5-31,3.7c-13.4,13.6-29.6,24.4-47,32.3c-13.6,6.1-19.9,15.8-21.9,29.4 c-5.9,40,3,75.3,37.4,99.4c29,20.3,61.4,26.4,94.7,10.5C694.4,2900.9,704.3,2877.9,703.2,2849.1z" style="stroke: rgb(0, 0, 0); stroke-miterlimit: 10; stroke-width: 3.5px; fill: rgb(3, 246, 104);"/>
      <path class="st0" d="M1543.3,466.5 c-11.2,0.4-24.8-0.5-38.4,2.6c-33.2,7.5-45.4,19.4-50.6,52.8c-4.3,27.6-0.6,54.2,11.1,79.9c4.5,10,9.6,12.4,20.4,10.4 c23.6-4.3,47.6-5.1,70.8,2.9c6.6,2.3,11.1,3,16-3.1c11.1-13.9,21.1-28,25-46.2c4.3-20.1,0-39.4-1.1-59.1 c-2.2-37.4-5.4-40.3-42.6-40.3C1551.1,466.5,1548.4,466.5,1543.3,466.5z" style="stroke: rgb(0, 0, 0); stroke-miterlimit: 10; stroke-width: 3.5px; fill: url(#gradient-2-17);"/>
      <path class="st0" d="M1669.3,1017.6c-24.9,21.8-52.7,30.1-80.9,38.4 c-12.5,3.7-29.8-8.1-36.2,5.5c-5.2,11.1,0.1,26.8-0.9,40.3c-2,25.6,2.6,49.2,19.9,68.6c40,44.9,79.4,32.3,98.4-16.3 C1686.7,1110.4,1684.4,1064.8,1669.3,1017.6z" style="stroke: rgb(0, 0, 0); stroke-miterlimit: 10; stroke-width: 3.5px; fill: url(#gradient-2-18);"/>
      <path class="st0" d="M1093.9,1516.2c-3.5,40,21.1,76.1,57.7,85.5c49.4,12.7,125.1-17.1,155.7-62.1 c-29.3-6.5-56-17.5-77.7-38.2c-5.5-5.2-9.7-1.7-14.4,1.2C1177,1525.8,1136.6,1531.6,1093.9,1516.2z" style="stroke: rgb(0, 0, 0); stroke-miterlimit: 10; stroke-width: 3.5px; fill: url(#gradient-4-2);"/>
      <path class="st0" d="M514.7,1826 c-67.7-130.2-76.7-263.8-22.4-406.5C381.1,1563.1,374.4,1705.8,514.7,1826z" style="stroke: rgb(0, 0, 0); stroke-miterlimit: 10; stroke-width: 3.5px; fill: url(#gradient-2-4);"/>
      <path class="st0" d="M1436.4,1362.9c-25.6,15.4-48,29.8-72.7,39.7 c-25.5,10.2-51.9,16.6-78.7,21.9c-13.3,2.6-26.8,33.4-19.4,41.4c32.6,35.2,99.3,33.2,129.7-4.4 C1417.8,1433.9,1429.6,1401.6,1436.4,1362.9z" style="stroke: rgb(0, 0, 0); stroke-miterlimit: 10; stroke-width: 3.5px; fill: rgb(193, 93, 242);"/>
      <path class="st0" d="M1406.7,981.1c-0.9,28.6,12.1,48.5,34.1,57.1c25.5,10,47.9,1.8,54.5-21.1 c9.1-31.5,10.6-64.2,14.1-96.6c0.9-8-3.7-13.2-9.3-17c-6.2-4.1-9.6,2.9-13.7,5.7c-18.5,12.4-35,29-58,32.6 c-11.4,1.8-16.9,6.3-18.1,17.5C1409.5,968.2,1407.5,976.8,1406.7,981.1z" style="stroke: rgb(0, 0, 0); stroke-miterlimit: 10; stroke-width: 3.5px; fill: url(#gradient-2-22);"/>
      <path class="st0" d="M1539.2,763.9c-0.5,32.4,3.3,61.9-8,90 c-1.7,4.3,1.6,7.6,3.8,11.1c17.5,27.7,58.1,31.9,79.1,7c21.3-25.4,27.3-55.8,24.2-88.3c-0.6-6-1.7-10.9-9.9-8 C1598.2,786.7,1569.6,781,1539.2,763.9z" style="stroke: rgb(0, 0, 0); stroke-miterlimit: 10; stroke-width: 3.5px; fill: url(#gradient-2-23);"/>
      <path class="st0" d="M1379,822.5c0.5,21.7,7.1,41.6,20.3,58.8c5.3,6.9,11.6,13.5,22.3,10.6 c39.2-10.7,72.5-59.3,68.1-98.9c-0.8-7.7-2.5-11.3-11-9.4c-20.8,4.8-41.4,0.4-60-7.2c-18.4-7.6-26.3,0.1-33.1,14.5 C1381,800.8,1378.2,811.2,1379,822.5z" style="stroke: rgb(0, 0, 0); stroke-miterlimit: 10; stroke-width: 3.5px; fill: url(#gradient-2-24);"/>
      <path class="st0" d="M1300.5,2669.7c0.5,0,1,0,1.4,0c0-13.5,5.2-30.9-1.3-39.6c-8-10.7-26.6-2.8-40.5-4.4 c-3.4-0.4-6.8-0.5-10.1-0.7c-31.5-2.1-36.3,2.1-36.3,32.4c0,9.5-0.2,19,0.5,28.5c3,37.4,13.2,45.9,51.2,43.3 c29.3-2,35-8.1,35-37.1C1300.5,2684.6,1300.5,2677.2,1300.5,2669.7z" style="stroke: rgb(0, 0, 0); stroke-miterlimit: 10; stroke-width: 3.5px; fill: url(#gradient-2-25);"/>
      <path class="st0" d="M1643.5,589.2c-7.8,24.5-21.3,43.8-38,61.1 c-5.2,5.5-9.6,10.6-9.4,19.3c0.5,15.9-4,31.2-12,44.7c-8.5,14.4-0.2,16.1,10.7,16.5c32.2,1,67.6-20.8,76.9-47.1 C1684.2,648.5,1674.3,613.6,1643.5,589.2z" style="stroke: rgb(0, 0, 0); stroke-miterlimit: 10; stroke-width: 3.5px; fill: url(#gradient-2-26);"/>
      <path class="st0" d="M897.5,2726.1c36.3,2.5,54-7.2,64.4-33.8c5.5-14.1,3.3-21.2-13-23.2 c-33.8-4.2-67.6-8.7-101-15c-14.2-2.7-14.4,3.2-14.1,13.5C834.9,2707.7,851.4,2722.9,897.5,2726.1z" style="stroke: rgb(0, 0, 0); stroke-miterlimit: 10; stroke-width: 3.5px; fill: url(#gradient-2-27);"/>
      <path class="st0" d="M1511.6,659.5 c-20.4,1.9-45,6.4-68.8,15c-10.5,3.8-19.7,10-26,19c-7.2,10.3-9.8,21.5,3.2,29.9c35.1,22.8,97.5,7.7,117.5-28.2 C1552.7,667.8,1547.7,659.3,1511.6,659.5z" style="stroke: rgb(0, 0, 0); stroke-miterlimit: 10; stroke-width: 3.5px; fill: url(#gradient-2-28);"/>
      <path class="st0" d="M1501,1085.9c-20.9,5.2-40.8,9.2-61.1,4.1c-10.4-2.6-13.2,3.6-14.8,11.6 c-3.6,18-5.8,36.2-4.9,54.6c1,21.3,11.9,30.5,32.9,28.3c17.5-1.8,28.3-12.7,36-26.8C1501.1,1135.5,1503.1,1111.5,1501,1085.9z M1785.7,831.3c-21.5,39.8-58.7,34-94.6,32.8c2.6,14.3,8.2,26,8.9,39.1c0.4,8.5-3.9,21.9,8.5,24.5c16.9,3.5,35.4,12.1,51.6,3.2 C1791.2,913.8,1802.7,867.9,1785.7,831.3z" style="stroke: rgb(0, 0, 0); stroke-miterlimit: 10; stroke-width: 3.5px; fill: url(#gradient-2-29);"/>
      <path class="st0" d="M1714.8,814.7c7.9-1.5,18.9,4.9,24.2-5c13.7-25.7,21.2-53.5,17.6-82.7 c-1.9-15-17.3-17.6-28.8-23.1c-5.6-2.7-9.1-0.5-11.5,4.4c-13.3,26.4-39.6,46.6-27.7,84C1693.8,809.4,1696.2,817.9,1714.8,814.7z M1217.6,1427c-38-2.6-73-10.5-107.1-22.7c-5-1.8-10.3-7.4-15.3,1.5c-12.2,21.9,0,56.2,23.8,65.1 C1152.7,1483.6,1199.3,1463.5,1217.6,1427z" style="stroke: rgb(0, 0, 0); stroke-miterlimit: 10; stroke-width: 3.5px; fill: url(#gradient-2-11);"/>
      <path class="st0" d="M1649.1,909.9c-17.1,15.4-34.8,22.9-54.1,27.4c-12.4,2.8-29.3-6.4-36.2,5 c-6.4,10.5-3.8,26.3-5.5,39.8c-2.6,20.6,5.4,27.9,26.4,23.9C1633.5,995.6,1652.7,970.4,1649.1,909.9z" style="stroke: rgb(0, 0, 0); stroke-miterlimit: 10; stroke-width: 3.5px; fill: url(#gradient-2-31);"/>
      <path class="st0" d="M1091,2540.9c-104.8-0.6-206.2-19.5-304.3-56.1c-52.6-19.6-105.8-25.6-160.4-9c-28.2,8.6-51.9,23.8-68.6,48.8 c-5,7.6-7.7,15.8-9.6,24.6c-1.5,7.1,7.9,15.4-0.9,20.7c-11.1,6.6-23.1,11.8-35.2,16.2c-9.1,3.3-9-5.8-10.5-11 c-9.6-33.3,1-62.5,21.2-87.9c41.6-52.4,99.7-68.3,163.3-71c52.3-2.2,100.2,15.7,148.6,31.9c103.4,34.8,209.4,49.1,318.4,39.9 c19-1.6,35.9-7.5,51.3-18.2c45.5-31.4,91.2-62.4,136.1-94.5c11.7-8.4,19.6-10.2,26.3,4.4c1.1,2.5,2.6,4.9,4.5,6.8 c13.9,13.9,11.7,22.7-5.5,33.7c-39.1,24.9-77.4,51.2-114.3,79.3c-40.1,30.4-84.9,41.9-134,41.6 C1108.8,2540.9,1099.9,2540.9,1091,2540.9z" style="stroke: rgb(0, 0, 0); stroke-miterlimit: 10; stroke-width: 3.5px; fill: rgb(193, 93, 242);"/>
      <path class="st0" d="M2066.1,2147.5c-50.9,0-91.5-39.8-92-90.1c-0.5-51.1,40-90.9,92.5-90.9c50.7,0,91.5,40.5,91.1,90.5 C2157.3,2107.3,2116.7,2147.4,2066.1,2147.5z" style="stroke: rgb(0, 0, 0); stroke-miterlimit: 10; stroke-width: 3.5px; fill: url(#gradient-2-33);"/>
      <path class="st0" d="M2065.5,2016.2c-23.6,0.1-41.4,18.2-40.8,41.4c0.5,21.9,18.7,39.9,40.6,40.3 c22.4,0.4,41.9-18.7,42-41.1C2107.3,2033.8,2089,2016,2065.5,2016.2z" style="stroke: rgb(0, 0, 0); stroke-miterlimit: 10; stroke-width: 3.5px; fill: url(#gradient-2-5);"/>
    </g>
  </g>
</svg>