<?xml version="1.0" encoding="utf-8"?>
<svg viewBox="-1403.962 -1043.193 1652.478 2907.312" xmlns="http://www.w3.org/2000/svg" xmlns:xlink="http://www.w3.org/1999/xlink">
  <defs>
    <linearGradient gradientUnits="userSpaceOnUse" x1="2488.574" y1="220.317" x2="2488.574" y2="3127.629" id="gradient-6" gradientTransform="matrix(0.999315, 0.037012, -0.02876, 0.459701, -257.129189, 1602.462836)">
      <stop offset="0" style="stop-color: rgb(255, 123, 0);"/>
      <stop offset="1" style="stop-color: rgb(32, 204, 63);"/>
    </linearGradient>
    <radialGradient gradientUnits="userSpaceOnUse" cx="1167.545" cy="2312.659" r="98.955" id="gradient-3" gradientTransform="matrix(0.99997, -0.007708, 0.036049, 4.677024, -432.121315, -8489.991754)">
      <stop offset="0" style="stop-color: rgba(255, 0, 0, 1)"/>
      <stop offset="1" style="stop-color: rgb(20, 0, 153);"/>
    </radialGradient>
    <radialGradient gradientUnits="userSpaceOnUse" cx="1849.866" cy="2311.666" r="96.679" id="gradient-4" gradientTransform="matrix(0.999977, -0.006798, 0.036897, 5.427749, -434.037674, -10218.189019)">
      <stop offset="0" style="stop-color: rgba(255, 0, 0, 1)"/>
      <stop offset="1" style="stop-color: rgb(5, 0, 153);"/>
    </radialGradient>
    <linearGradient id="gradient-1-1" gradientUnits="userSpaceOnUse" x1="897.037" y1="2369.636" x2="897.037" y2="2859.16" gradientTransform="matrix(1, 0, 0, 1, -348.786041, 4.713325)" xlink:href="#gradient-1"/>
    <linearGradient id="gradient-1">
      <stop style="stop-color: rgb(255, 213, 0);" offset="0"/>
      <stop style="stop-color: rgb(153, 0, 0);" offset="1"/>
    </linearGradient>
    <linearGradient id="gradient-1-0" gradientUnits="userSpaceOnUse" x1="2107.64" y1="2389.888" x2="2107.64" y2="2861.213" gradientTransform="matrix(1, 0, 0, 1, -348.786041, 4.713325)" xlink:href="#gradient-1"/>
    <radialGradient id="gradient-69-1" gradientUnits="userSpaceOnUse" cx="909.639" cy="1818.8" r="114.961" gradientTransform="matrix(1, 0, 0, 1, -348.786041, 4.713325)" xlink:href="#gradient-69"/>
    <linearGradient id="gradient-69">
      <stop style="stop-color: rgb(255, 0, 0);" offset="0"/>
      <stop style="stop-color: rgb(34, 255, 251);" offset="1"/>
    </linearGradient>
    <linearGradient id="gradient-40-1" gradientUnits="userSpaceOnUse" x1="2097.179" y1="2015.854" x2="2097.179" y2="2358.483" gradientTransform="matrix(1, 0, 0, 1, -348.786041, 4.713325)" xlink:href="#gradient-40"/>
    <linearGradient id="gradient-40">
      <stop style="stop-color: rgb(54, 22, 149);" offset="0"/>
      <stop style="stop-color: rgb(241, 40, 0);" offset="1"/>
    </linearGradient>
    <radialGradient id="gradient-69-0" gradientUnits="userSpaceOnUse" cx="2089.499" cy="1819.983" r="109.817" gradientTransform="matrix(1, 0, 0, 1, -348.786041, 4.713325)" xlink:href="#gradient-69"/>
    <linearGradient id="gradient-40-0" gradientUnits="userSpaceOnUse" x1="907.722" y1="2023.2" x2="907.722" y2="2365.907" gradientTransform="matrix(1, 0, 0, 1, -348.786041, 4.713325)" xlink:href="#gradient-40"/>
    <linearGradient gradientUnits="userSpaceOnUse" x1="1496.556" y1="1743.184" x2="1496.556" y2="2272.865" id="gradient-2" gradientTransform="matrix(0.999847, -0.017467, 0.015163, 0.778801, -374.989027, 416.444709)">
      <stop offset="0" style="stop-color: rgba(255, 0, 0, 1)"/>
      <stop offset="1" style="stop-color: rgb(15, 194, 244);"/>
    </linearGradient>
    <linearGradient gradientUnits="userSpaceOnUse" x1="1775.745" y1="2045.7" x2="1775.745" y2="2712" id="gradient-15" gradientTransform="matrix(1, 0, 0, 1, -348.786041, 4.713325)">
      <stop offset="0" style="stop-color: rgba(255, 0, 0, 1)"/>
      <stop offset="1" style="stop-color: rgb(227, 242, 17);"/>
    </linearGradient>
    <radialGradient gradientUnits="userSpaceOnUse" cx="1671.249" cy="1903.635" r="40.573" id="gradient-18" gradientTransform="matrix(1, 0, 0, 1, -348.786041, 4.713325)">
      <stop offset="0" style="stop-color: rgba(255, 0, 0, 1)"/>
      <stop offset="1" style="stop-color: rgba(153, 0, 0, 1)"/>
    </radialGradient>
    <radialGradient gradientUnits="userSpaceOnUse" cx="1466.565" cy="2030.45" r="43.598" id="gradient-19" gradientTransform="matrix(1, 0, 0, 1, -348.786041, 4.713325)">
      <stop offset="0" style="stop-color: rgba(255, 0, 0, 1)"/>
      <stop offset="1" style="stop-color: rgba(153, 0, 0, 1)"/>
    </radialGradient>
    <radialGradient gradientUnits="userSpaceOnUse" cx="1587.113" cy="2563.692" r="46.905" id="gradient-20" gradientTransform="matrix(1, 0, 0, 1, -348.786041, 4.713325)">
      <stop offset="0" style="stop-color: rgba(255, 0, 0, 1)"/>
      <stop offset="1" style="stop-color: rgba(153, 0, 0, 1)"/>
    </radialGradient>
    <radialGradient gradientUnits="userSpaceOnUse" cx="1652.696" cy="2438.506" r="47.435" id="gradient-21" gradientTransform="matrix(1, 0, 0, 1, -348.786041, 4.713325)">
      <stop offset="0" style="stop-color: rgba(255, 0, 0, 1)"/>
      <stop offset="1" style="stop-color: rgba(153, 0, 0, 1)"/>
    </radialGradient>
    <radialGradient gradientUnits="userSpaceOnUse" cx="1680.16" cy="2618.283" r="33.754" id="gradient-22" gradientTransform="matrix(1, 0, 0, 1, -348.786041, 4.713325)">
      <stop offset="0" style="stop-color: rgba(255, 0, 0, 1)"/>
      <stop offset="1" style="stop-color: rgba(153, 0, 0, 1)"/>
    </radialGradient>
    <radialGradient gradientUnits="userSpaceOnUse" cx="1396.805" cy="1934.773" r="38.076" id="gradient-24" gradientTransform="matrix(1, 0, 0, 1, -348.786041, 4.713325)">
      <stop offset="0" style="stop-color: rgba(255, 0, 0, 1)"/>
      <stop offset="1" style="stop-color: rgba(153, 0, 0, 1)"/>
    </radialGradient>
    <radialGradient gradientUnits="userSpaceOnUse" cx="1612.469" cy="2003.95" r="40.5" id="gradient-25" gradientTransform="matrix(1, 0, 0, 1, -348.786041, 4.713325)">
      <stop offset="0" style="stop-color: rgba(255, 0, 0, 1)"/>
      <stop offset="1" style="stop-color: rgba(153, 0, 0, 1)"/>
    </radialGradient>
    <radialGradient gradientUnits="userSpaceOnUse" cx="1387.144" cy="2134.463" r="49.244" id="gradient-26" gradientTransform="matrix(1, 0, 0, 1, -348.786041, 4.713325)">
      <stop offset="0" style="stop-color: rgba(255, 0, 0, 1)"/>
      <stop offset="1" style="stop-color: rgba(153, 0, 0, 1)"/>
    </radialGradient>
    <radialGradient gradientUnits="userSpaceOnUse" cx="1490.43" cy="2508.158" r="43.461" id="gradient-27" gradientTransform="matrix(1, 0, 0, 1, -348.786041, 4.713325)">
      <stop offset="0" style="stop-color: rgba(255, 0, 0, 1)"/>
      <stop offset="1" style="stop-color: rgba(153, 0, 0, 1)"/>
    </radialGradient>
    <radialGradient gradientUnits="userSpaceOnUse" cx="1407.846" cy="2533.799" r="64.257" id="gradient-28" gradientTransform="matrix(1, 0, 0, 1, -348.786041, 4.713325)">
      <stop offset="0" style="stop-color: rgba(255, 0, 0, 1)"/>
      <stop offset="1" style="stop-color: rgba(153, 0, 0, 1)"/>
    </radialGradient>
    <radialGradient gradientUnits="userSpaceOnUse" cx="1333.808" cy="2062.85" r="27.769" id="gradient-29" gradientTransform="matrix(1, 0, 0, 1, -348.786041, 4.713325)">
      <stop offset="0" style="stop-color: rgba(255, 0, 0, 1)"/>
      <stop offset="1" style="stop-color: rgba(153, 0, 0, 1)"/>
    </radialGradient>
    <radialGradient gradientUnits="userSpaceOnUse" cx="1534.444" cy="1906.4" r="34.032" id="gradient-30" gradientTransform="matrix(1, 0, 0, 1, -348.786041, 4.713325)">
      <stop offset="0" style="stop-color: rgba(255, 0, 0, 1)"/>
      <stop offset="1" style="stop-color: rgba(153, 0, 0, 1)"/>
    </radialGradient>
    <radialGradient gradientUnits="userSpaceOnUse" cx="1532.427" cy="2659.085" r="45.984" id="gradient-31" gradientTransform="matrix(1, 0, 0, 1, -348.786041, 4.713325)">
      <stop offset="0" style="stop-color: rgba(255, 0, 0, 1)"/>
      <stop offset="1" style="stop-color: rgba(153, 0, 0, 1)"/>
    </radialGradient>
    <radialGradient gradientUnits="userSpaceOnUse" cx="1343.587" cy="2557.91" r="33.18" id="gradient-32" gradientTransform="matrix(1, 0, 0, 1, -348.786041, 4.713325)">
      <stop offset="0" style="stop-color: rgba(255, 0, 0, 1)"/>
      <stop offset="1" style="stop-color: rgba(153, 0, 0, 1)"/>
    </radialGradient>
    <radialGradient gradientUnits="userSpaceOnUse" cx="1544.17" cy="2416.293" r="39.582" id="gradient-33" gradientTransform="matrix(1, 0, 0, 1, -348.786041, 4.713325)">
      <stop offset="0" style="stop-color: rgba(255, 0, 0, 1)"/>
      <stop offset="1" style="stop-color: rgba(153, 0, 0, 1)"/>
    </radialGradient>
    <radialGradient gradientUnits="userSpaceOnUse" cx="1689.18" cy="2108.7" r="21.562" id="gradient-34" gradientTransform="matrix(1, 0, 0, 1, -348.786041, 4.713325)">
      <stop offset="0" style="stop-color: rgba(255, 0, 0, 1)"/>
      <stop offset="1" style="stop-color: rgba(153, 0, 0, 1)"/>
    </radialGradient>
    <radialGradient gradientUnits="userSpaceOnUse" cx="1390.958" cy="1873.556" r="90.842" id="gradient-35" gradientTransform="matrix(1, 0, 0, 1, -348.786041, 4.713325)">
      <stop offset="0" style="stop-color: rgba(255, 0, 0, 1)"/>
      <stop offset="1" style="stop-color: rgba(153, 0, 0, 1)"/>
    </radialGradient>
    <radialGradient gradientUnits="userSpaceOnUse" cx="1373.979" cy="2682.555" r="20.121" id="gradient-36" gradientTransform="matrix(1, 0, 0, 1, -348.786041, 4.713325)">
      <stop offset="0" style="stop-color: rgba(255, 0, 0, 1)"/>
      <stop offset="1" style="stop-color: rgba(153, 0, 0, 1)"/>
    </radialGradient>
    <radialGradient gradientUnits="userSpaceOnUse" cx="1500.149" cy="1459.351" r="130.753" id="gradient-37" gradientTransform="matrix(1, 0, 0, 1, -348.786041, 4.713325)">
      <stop offset="0" style="stop-color: rgba(255, 0, 0, 1)"/>
      <stop offset="1" style="stop-color: rgba(153, 0, 0, 1)"/>
    </radialGradient>
  </defs>
  <path class="st0" d="M 1976.514 896.813 C 1970.314 1024.313 1972.914 1143.113 1955.014 1260.613 C 1942.214 1344.913 1929.814 1429.213 1915.714 1513.313 C 1910.414 1545.213 1896.914 1574.813 1877.114 1600.713 C 1867.914 1612.813 1865.914 1624.413 1868.814 1639.013 C 1886.014 1725.613 1894.414 1813.413 1897.614 1901.513 C 1898.814 1935.313 1897.814 1970.113 1871.014 1996.713 C 1859.914 2007.713 1869.014 2017.113 1872.714 2026.713 C 1904.814 2110.813 1915.114 2197.213 1899.914 2286.213 C 1898.214 2296.113 1898.214 2308.013 1892.614 2315.313 C 1866.514 2350.013 1880.414 2381.713 1893.114 2417.013 C 1928.814 2516.413 1936.314 2618.113 1899.614 2719.113 C 1857.614 2834.713 1773.714 2898.313 1651.514 2910.913 C 1629.614 2913.213 1608.514 2914.613 1589.214 2928.113 C 1575.714 2937.613 1558.214 2940.113 1541.514 2938.413 C 1483.514 2932.513 1426.814 2940.713 1369.714 2949.613 C 1222.414 2972.613 1075.014 2968.313 928.214 2943.313 C 914.314 2940.913 901.414 2941.313 887.714 2944.713 C 851.114 2953.813 814.514 2949.513 778.614 2941.113 C 752.814 2935.113 730.114 2921.213 717.214 2897.713 C 706.114 2877.513 695.214 2877.113 676.214 2886.513 C 648.114 2900.413 617.014 2906.113 585.914 2909.613 C 510.314 2918.213 445.714 2881.513 406.914 2807.313 C 371.414 2739.413 362.814 2666.013 364.814 2590.713 C 367.014 2508.213 385.014 2428.913 412.814 2351.513 C 416.214 2342.113 421.614 2333.113 416.714 2322.613 C 387.314 2260.013 393.714 2193.313 396.514 2127.513 C 398.414 2083.413 408.714 2040.413 421.714 1998.113 C 424.314 1989.713 428.514 1981.913 424.114 1971.813 C 397.714 1911.013 397.714 1846.713 402.014 1782.213 C 406.314 1716.213 415.214 1650.713 429.614 1586.013 C 431.614 1576.813 433.514 1568.813 427.714 1559.913 C 393.714 1508.413 383.814 1449.813 378.814 1389.813 C 367.214 1250.613 360.814 1111.213 361.614 971.413 C 361.714 961.413 363.114 951.013 358.014 941.613 C 321.414 873.713 322.214 800.713 329.214 726.813 C 338.814 626.013 356.514 527.113 387.814 430.413 C 436.614 279.613 536.214 182.613 688.014 138.313 C 886.714 80.413 1088.514 46.713 1296.514 60.413 C 1419.114 68.513 1538.514 90.813 1652.714 137.813 C 1833.714 212.213 1936.314 346.113 1960.214 540.313 C 1975.014 661.813 1980.814 783.713 1976.514 896.813 Z" style="stroke: rgb(0, 0, 0); stroke-miterlimit: 10; stroke-width: 3.5px; fill: url(#gradient-6);" transform="matrix(1, 0, 0, 1, -1729.38147, -1100.562134)"/>
  <path class="st0" d="M 1404.514 912.313 C 1445.814 921.413 1471.514 903.913 1473.714 864.213 C 1475.514 831.213 1474.814 798.113 1475.414 765.013 C 1475.714 744.913 1487.614 738.313 1506.014 738.113 C 1524.814 737.913 1533.814 747.613 1533.014 765.013 C 1530.914 808.913 1535.514 853.313 1526.614 896.813 C 1523.714 911.113 1528.014 913.413 1540.814 915.413 C 1637.014 930.713 1733.114 929.013 1828.714 912.613 C 1851.714 908.713 1867.114 910.413 1871.914 935.613 C 1876.914 962.113 1857.214 966.113 1838.814 969.013 C 1755.914 981.913 1672.714 984.913 1588.914 978.213 C 1534.714 973.813 1481.914 958.713 1425.414 968.513 C 1394.314 973.913 1365.014 974.413 1333.814 988.613 C 1278.614 1013.713 1217.614 1010.213 1158.514 993.813 C 1148.114 990.913 1138.614 987.013 1126.914 992.913 C 1079.914 1016.813 1034.214 1009.813 990.814 983.313 C 981.414 977.613 975.114 978.013 966.214 982.613 C 897.714 1018.113 825.414 1027.413 749.614 1014.613 C 682.714 1003.413 613.914 998.113 560.514 948.713 C 551.714 940.613 545.514 946.513 538.614 950.213 C 509.114 966.013 478.114 978.613 444.214 976.113 C 421.214 974.413 416.814 983.113 417.314 1004.013 C 420.414 1139.013 425.314 1273.813 437.814 1408.413 C 447.314 1510.413 496.114 1581.213 589.614 1623.213 C 691.914 1669.113 800.214 1685.213 910.614 1692.513 C 1083.314 1703.913 1255.914 1692.313 1428.514 1690.613 C 1530.614 1689.613 1631.914 1677.813 1728.814 1642.213 C 1798.314 1616.713 1846.914 1571.213 1860.714 1496.413 C 1882.414 1379.013 1899.414 1260.513 1908.914 1141.813 C 1924.314 949.513 1925.614 756.713 1905.414 564.013 C 1886.714 386.413 1799.814 260.813 1633.814 191.413 C 1520.714 144.113 1402.014 122.913 1280.514 115.913 C 1082.814 104.613 891.214 137.613 702.214 193.313 C 572.214 231.713 486.714 313.613 443.914 441.413 C 410.814 540.313 393.914 642.613 384.714 745.913 C 380.214 796.813 379.014 848.713 400.214 897.913 C 406.914 913.413 415.514 920.913 433.014 920.813 C 498.514 920.313 545.514 885.713 584.914 838.413 C 620.914 795.313 646.114 744.813 676.514 697.813 C 686.514 682.313 697.914 679.813 713.514 689.813 C 728.814 699.613 736.514 710.313 725.014 728.113 C 689.214 783.613 659.714 843.413 613.014 891.113 C 599.614 904.813 600.414 912.913 616.314 921.313 C 624.414 925.513 632.414 930.413 641.014 933.113 C 684.814 946.913 729.314 957.813 775.014 963.113 C 908.214 978.413 1029.214 905.413 1069.314 786.113 C 1077.314 762.413 1081.414 737.913 1082.714 713.213 C 1083.814 692.513 1092.814 683.213 1113.414 683.413 C 1136.714 683.613 1140.414 698.113 1139.214 716.713 C 1138.514 727.713 1138.014 738.713 1136.414 749.613 C 1125.614 825.113 1090.314 887.813 1034.514 939.713 C 1077.114 961.013 1103.814 950.913 1118.114 910.113 C 1142.614 840.113 1163.714 768.613 1205.714 706.113 C 1219.614 685.513 1235.814 684.713 1252.514 702.513 C 1266.114 716.913 1258.014 729.313 1250.014 742.013 C 1211.514 803.613 1191.014 872.313 1168.214 940.213 C 1208.514 949.313 1245.814 950.413 1283.514 945.813 C 1323.314 941.013 1345.414 919.013 1353.814 879.813 C 1363.714 833.613 1376.114 787.913 1387.414 742.013 C 1392.414 721.713 1404.714 711.613 1425.614 717.013 C 1445.714 722.213 1449.514 735.513 1444.114 755.213 C 1430.014 807.313 1417.614 859.913 1404.514 912.313 Z" style="stroke: rgb(0, 0, 0); stroke-miterlimit: 10; stroke-width: 3.5px; fill: rgb(154, 68, 220);" transform="matrix(1, 0, 0, 1, -1729.38147, -1100.562134)"/>
  <path class="st0" d="M 917.614 2296.513 C 910.314 1999.913 905.614 1788.613 907.014 1770.413 C 907.214 1768.213 908.214 1758.513 902.314 1752.013 C 898.914 1748.213 893.214 1746.413 884.314 1745.613 C 837.714 1741.913 790.914 1737.413 745.014 1729.013 C 722.214 1724.813 719.614 1730.213 719.814 1750.613 C 722.414 2074.713 724.114 2398.813 726.414 2722.913 C 726.714 2760.513 726.714 2798.313 737.814 2834.913 C 755.514 2893.113 833.514 2925.013 888.214 2896.413 C 899.714 2890.413 905.214 2880.213 908.914 2868.513 C 916.114 2845.413 917.714 2821.713 917.714 2797.813 C 917.614 2630.713 917.614 2463.613 917.614 2296.513 Z" style="stroke: rgb(0, 0, 0); stroke-miterlimit: 10; stroke-width: 3.5px; fill: url(#gradient-3);" transform="matrix(1, 0, 0, 1, -1729.38147, -1100.562134)"/>
  <path class="st0" d="M 1597.714 2293.513 C 1589.614 1995.813 1584.514 1784.413 1586.114 1761.713 C 1586.314 1758.713 1587.514 1746.713 1580.314 1740.413 C 1575.814 1736.513 1568.414 1736.313 1557.614 1737.513 C 1516.614 1742.213 1475.314 1746.713 1434.114 1746.613 C 1409.014 1746.613 1404.114 1754.013 1404.414 1777.613 C 1406.814 1974.213 1407.614 2170.813 1409.214 2367.413 C 1410.314 2498.813 1411.814 2630.113 1413.314 2761.513 C 1413.614 2787.313 1416.414 2812.713 1425.814 2837.213 C 1444.414 2885.813 1528.614 2912.613 1572.814 2884.413 C 1583.214 2877.813 1587.014 2868.013 1590.714 2857.713 C 1598.414 2836.513 1597.714 2814.313 1597.714 2792.313 C 1597.814 2626.113 1597.714 2459.813 1597.714 2293.513 Z" style="stroke: rgb(0, 0, 0); stroke-miterlimit: 10; stroke-width: 3.5px; fill: url(#gradient-4);" transform="matrix(1, 0, 0, 1, -1729.38147, -1100.562134)"/>
  <path class="st0" d="M 582.914 2863.713 C 598.614 2862.713 628.614 2855.113 658.414 2845.313 C 683.314 2837.113 689.614 2824.713 684.614 2798.913 C 681.014 2780.113 673.814 2774.213 656.614 2769.513 C 572.214 2746.713 521.414 2676.313 524.214 2593.013 C 526.814 2515.513 587.014 2454.013 665.314 2452.813 C 674.414 2452.713 678.114 2448.713 678.914 2439.613 C 680.414 2422.413 678.214 2412.713 655.914 2414.313 C 589.414 2419.113 523.614 2416.713 465.114 2377.713 C 450.114 2367.713 451.114 2382.513 448.614 2389.613 C 418.914 2475.513 405.214 2563.913 412.014 2654.713 C 416.214 2711.113 430.214 2765.013 464.014 2812.013 C 489.514 2847.213 523.414 2865.813 582.914 2863.713 Z" style="stroke: rgb(0, 0, 0); stroke-miterlimit: 10; stroke-width: 3.5px; fill: url(#gradient-1-1);" transform="matrix(1, 0, 0, 1, -1729.38147, -1100.562134)"/>
  <path class="st0" d="M 946.414 2899.813 C 1099.914 2924.513 1251.114 2924.313 1405.914 2897.813 C 1376.814 2854.613 1367.514 2810.013 1366.914 2763.813 C 1366.614 2743.913 1359.314 2739.813 1340.914 2740.113 C 1221.714 2742.513 1102.514 2744.313 983.314 2745.113 C 965.514 2745.213 962.114 2751.313 962.314 2767.313 C 963.014 2811.113 966.914 2855.513 946.414 2899.813 Z" style="stroke: rgb(0, 0, 0); stroke-miterlimit: 10; stroke-width: 3.5px; fill: rgb(142, 128, 235);" transform="matrix(1, 0, 0, 1, -1729.38147, -1100.562134)"/>
  <path class="st0" d="M 1698.614 2409.213 C 1691.314 2409.213 1683.914 2409.213 1676.614 2409.213 C 1637.514 2409.013 1638.114 2408.913 1640.714 2448.213 C 1641.514 2459.713 1645.614 2463.713 1656.314 2466.013 C 1668.814 2468.713 1680.014 2475.213 1690.314 2483.313 C 1778.014 2552.413 1764.514 2704.113 1665.914 2756.813 C 1655.814 2762.213 1644.014 2764.413 1644.214 2780.913 C 1644.514 2804.713 1642.514 2828.513 1640.114 2852.213 C 1639.014 2863.313 1641.114 2867.113 1652.814 2865.613 C 1734.314 2855.213 1799.614 2818.213 1838.214 2744.413 C 1897.114 2632.013 1884.614 2517.913 1839.914 2404.113 C 1836.014 2394.213 1831.514 2393.013 1821.214 2396.113 C 1781.314 2408.113 1739.714 2407.113 1698.614 2409.213 Z" style="stroke: rgb(0, 0, 0); stroke-miterlimit: 10; stroke-width: 3.5px; fill: url(#gradient-1-0);" transform="matrix(1, 0, 0, 1, -1729.38147, -1100.562134)"/>
  <path class="st0" d="M 470.314 1612.713 C 453.614 1714.213 436.414 1809.213 452.014 1905.713 C 464.014 1979.913 502.214 2015.613 575.814 2030.213 C 592.214 2033.413 608.514 2034.313 625.114 2034.313 C 675.814 2034.313 675.814 2034.313 675.814 1984.813 C 675.814 1935.213 675.814 1934.613 626.214 1935.313 C 587.714 1935.913 557.414 1923.113 542.214 1886.113 C 526.514 1848.013 530.314 1808.313 539.314 1769.713 C 549.714 1725.313 583.914 1707.113 632.314 1701.113 C 572.114 1677.913 518.814 1656.013 470.314 1612.713 Z" style="stroke: rgb(0, 0, 0); stroke-miterlimit: 10; stroke-width: 3.5px; fill: url(#gradient-69-1);" transform="matrix(1, 0, 0, 1, -1729.38147, -1100.562134)"/>
  <path class="st0" d="M 1161.914 2348.613 C 1222.414 2348.613 1282.914 2348.113 1343.414 2348.913 C 1359.014 2349.113 1364.514 2344.313 1363.714 2328.613 C 1362.414 2303.013 1362.414 2277.313 1362.914 2251.613 C 1363.214 2236.813 1358.814 2230.313 1342.714 2230.413 C 1220.814 2230.913 1098.914 2230.813 977.014 2230.513 C 962.914 2230.513 957.414 2235.413 958.014 2249.813 C 959.114 2275.413 960.014 2301.213 958.914 2326.813 C 958.114 2345.913 966.414 2349.213 983.214 2349.013 C 1042.714 2348.013 1102.314 2348.613 1161.914 2348.613 Z" style="stroke: rgb(0, 0, 0); stroke-miterlimit: 10; stroke-width: 3.5px; fill: rgb(158, 63, 226);" transform="matrix(1, 0, 0, 1, -1729.38147, -1100.562134)"/>
  <path class="st0" d="M 1718.714 2362.913 C 1718.714 2362.613 1718.714 2362.413 1718.714 2362.113 C 1735.214 2361.213 1751.714 2360.213 1768.114 2359.613 C 1812.914 2357.913 1837.214 2341.813 1849.214 2299.313 C 1874.014 2211.013 1859.814 2125.113 1828.514 2040.913 C 1825.314 2032.413 1820.714 2026.613 1810.214 2028.913 C 1756.014 2041.013 1702.614 2033.213 1649.414 2022.413 C 1644.814 2021.513 1636.814 2017.313 1636.414 2025.713 C 1635.514 2044.913 1632.814 2065.313 1638.114 2083.013 C 1642.414 2097.213 1660.914 2088.113 1672.714 2088.513 C 1716.414 2089.913 1743.514 2104.113 1754.114 2136.313 C 1765.114 2169.913 1767.014 2204.913 1758.714 2239.413 C 1746.414 2290.413 1708.914 2314.313 1660.414 2322.913 C 1644.214 2325.813 1639.714 2332.213 1640.414 2348.013 C 1641.114 2366.413 1654.114 2362.213 1663.814 2362.813 C 1681.914 2363.613 1700.314 2362.913 1718.714 2362.913 Z" style="stroke: rgb(0, 0, 0); stroke-miterlimit: 10; stroke-width: 3.5px; fill: url(#gradient-40-1);" transform="matrix(1, 0, 0, 1, -1729.38147, -1100.562134)"/>
  <path class="st0" d="M 1658.314 1976.413 C 1708.814 1987.313 1753.414 1995.213 1799.114 1984.413 C 1837.014 1975.513 1849.414 1960.913 1850.314 1921.613 C 1852.214 1837.913 1841.314 1755.213 1828.514 1672.713 C 1826.614 1660.613 1823.914 1655.713 1811.614 1663.813 C 1763.214 1695.713 1708.014 1709.313 1652.814 1723.113 C 1644.314 1725.213 1630.314 1721.913 1630.914 1737.913 C 1631.414 1751.313 1643.814 1749.313 1651.414 1751.713 C 1701.914 1767.413 1731.714 1801.913 1733.014 1853.813 C 1734.314 1906.013 1721.014 1954.413 1658.314 1976.413 Z" style="stroke: rgb(0, 0, 0); stroke-miterlimit: 10; stroke-width: 3.5px; fill: url(#gradient-69-0);" transform="matrix(1, 0, 0, 1, -1729.38147, -1100.562134)"/>
  <path class="st0" d="M 463.314 2027.913 C 460.914 2033.113 458.914 2036.113 458.114 2039.513 C 438.314 2114.113 434.814 2189.813 445.814 2265.813 C 452.114 2309.113 478.214 2338.713 519.314 2354.313 C 564.114 2371.213 610.514 2372.413 657.514 2369.213 C 679.214 2367.713 678.214 2354.613 678.214 2338.913 C 678.214 2319.413 665.814 2325.813 655.614 2326.313 C 579.214 2329.813 516.614 2286.813 496.914 2217.313 C 478.514 2152.713 508.614 2106.213 574.714 2096.213 C 601.614 2092.113 627.614 2099.313 654.114 2100.713 C 661.714 2101.113 674.714 2113.513 675.914 2093.213 C 676.914 2075.913 664.714 2080.213 655.314 2080.413 C 586.314 2082.213 519.414 2076.713 463.314 2027.913 Z" style="stroke: rgb(0, 0, 0); stroke-miterlimit: 10; stroke-width: 3.5px; fill: url(#gradient-40-0);" transform="matrix(1, 0, 0, 1, -1729.38147, -1100.562134)"/>
  <path class="st0" d="M 1158.014 1801.813 C 1216.714 1801.813 1275.414 1800.513 1334.014 1802.413 C 1358.214 1803.213 1359.514 1792.713 1360.114 1773.513 C 1360.814 1752.713 1354.614 1747.013 1333.914 1748.113 C 1213.914 1754.013 1093.814 1755.613 973.814 1751.613 C 957.614 1751.113 949.814 1754.113 951.714 1772.113 C 953.214 1787.013 947.614 1803.013 973.814 1802.313 C 1035.214 1800.613 1096.614 1801.813 1158.014 1801.813 Z" style="stroke: rgb(0, 0, 0); stroke-miterlimit: 10; stroke-width: 3.5px; fill: rgb(158, 63, 226);" transform="matrix(1, 0, 0, 1, -1729.38147, -1100.562134)"/>
  <path class="st0" d="M 680.914 2614.013 C 680.514 2614.013 680.114 2614.013 679.714 2614.013 C 679.714 2580.913 679.414 2547.813 679.914 2514.813 C 680.114 2501.713 675.414 2497.113 662.014 2498.013 C 622.814 2500.813 586.414 2529.313 574.814 2567.613 C 554.914 2633.213 598.314 2707.913 664.714 2724.713 C 680.714 2728.813 681.114 2722.413 681.014 2710.413 C 680.714 2678.313 680.914 2646.113 680.914 2614.013 Z" style="stroke: rgb(0, 0, 0); stroke-miterlimit: 10; stroke-width: 3.5px; fill: rgb(151, 90, 230);" transform="matrix(1, 0, 0, 1, -1729.38147, -1100.562134)"/>
  <path class="st0" d="M 677.214 2216.113 C 676.814 2216.113 676.314 2216.113 675.914 2216.113 C 675.914 2199.613 675.614 2183.113 676.014 2166.613 C 676.214 2156.913 673.014 2151.713 662.614 2149.813 C 636.414 2145.013 610.114 2140.213 583.414 2142.413 C 543.514 2145.813 528.914 2168.613 542.014 2206.913 C 556.714 2250.013 586.714 2274.913 632.514 2279.913 C 670.514 2284.013 677.414 2278.213 677.114 2240.913 C 677.114 2232.613 677.214 2224.413 677.214 2216.113 Z" style="stroke: rgb(0, 0, 0); stroke-miterlimit: 10; stroke-width: 3.5px; fill: rgb(0, 13, 255);" transform="matrix(1, 0, 0, 1, -1729.38147, -1100.562134)"/>
  <path class="st0" d="M 675.414 1817.113 C 675.314 1817.113 675.214 1817.113 675.114 1817.113 C 675.114 1806.113 675.214 1795.213 675.114 1784.213 C 674.914 1748.113 673.114 1746.513 636.014 1748.413 C 633.314 1748.513 630.514 1748.613 627.814 1748.913 C 606.114 1751.013 587.214 1758.913 584.114 1782.713 C 579.714 1816.413 568.814 1851.713 595.314 1881.913 C 598.514 1885.613 605.014 1887.413 610.214 1888.213 C 631.214 1891.413 654.714 1893.713 671.714 1883.313 C 682.714 1876.613 674.414 1854.313 675.414 1839.013 C 675.814 1831.813 675.414 1824.413 675.414 1817.113 Z M 1717.414 2201.513 C 1717.314 2143.713 1703.614 2129.213 1655.514 2134.113 C 1641.414 2135.513 1636.714 2141.113 1637.214 2154.813 C 1638.514 2190.413 1639.614 2226.113 1639.214 2261.713 C 1639.114 2278.513 1647.114 2278.913 1659.714 2276.513 C 1697.514 2269.313 1717.514 2243.513 1717.414 2201.513 Z" style="stroke: rgb(0, 0, 0); stroke-miterlimit: 10; stroke-width: 3.5px; fill: url(#gradient-2);" transform="matrix(1, 0, 0, 1, -1729.38147, -1100.562134)"/>
  <path class="st0" d="M 1197.114 2050.413 C 1181.614 2080.413 1167.914 2106.213 1154.814 2132.313 C 1144.114 2153.613 1160.114 2181.313 1183.914 2183.113 C 1228.314 2186.613 1248.314 2171.613 1258.014 2129.013 C 1259.814 2121.013 1256.514 2117.013 1252.214 2112.313 C 1234.614 2092.513 1217.014 2072.813 1197.114 2050.413 Z M 1641.814 2716.713 C 1678.514 2696.013 1692.114 2669.613 1698.914 2639.613 C 1709.314 2594.213 1696.814 2554.513 1664.314 2521.213 C 1659.814 2516.613 1654.114 2512.913 1647.214 2513.713 C 1640.714 2514.413 1641.814 2520.013 1641.814 2524.313 C 1641.814 2586.413 1641.814 2648.513 1641.814 2716.713 Z" style="stroke: rgb(0, 0, 0); stroke-miterlimit: 10; stroke-width: 3.5px; fill: url(#gradient-15);" transform="matrix(1, 0, 0, 1, -1729.38147, -1100.562134)"/>
  <path class="st0" d="M 1330.014 1970.213 C 1340.014 1948.713 1350.614 1930.413 1357.214 1910.713 C 1372.614 1865.113 1357.014 1842.313 1315.714 1847.113 C 1296.214 1849.313 1273.914 1892.513 1284.714 1908.513 C 1298.514 1928.813 1313.714 1948.113 1330.014 1970.213 Z" style="stroke: rgb(0, 0, 0); stroke-miterlimit: 10; stroke-width: 3.5px; fill: url(#gradient-18);" transform="matrix(1, 0, 0, 1, -1729.38147, -1100.562134)"/>
  <path class="st0" d="M 1120.814 1964.813 C 1105.314 1990.313 1091.914 2013.113 1077.614 2035.413 C 1072.214 2043.913 1073.514 2050.213 1079.214 2057.613 C 1090.914 2072.713 1102.114 2088.313 1114.814 2105.513 C 1122.814 2091.313 1130.114 2078.813 1137.014 2066.113 C 1144.414 2052.413 1151.314 2038.413 1158.714 2024.713 C 1162.714 2017.413 1162.414 2011.313 1156.414 2004.913 C 1144.714 1992.413 1133.614 1979.313 1120.814 1964.813 Z" style="stroke: rgb(0, 0, 0); stroke-miterlimit: 10; stroke-width: 3.5px; fill: url(#gradient-19);" transform="matrix(1, 0, 0, 1, -1729.38147, -1100.562134)"/>
  <path class="st0" d="M 1245.814 2619.713 C 1255.614 2620.613 1256.314 2613.513 1258.414 2609.413 C 1265.114 2596.413 1269.414 2582.113 1277.114 2569.913 C 1293.014 2544.913 1284.814 2533.913 1259.014 2522.913 C 1236.914 2513.513 1224.714 2513.413 1215.514 2537.113 C 1210.614 2549.813 1202.314 2561.113 1196.114 2573.313 C 1193.814 2577.713 1188.114 2583.913 1194.014 2587.913 C 1211.314 2599.413 1229.514 2609.813 1245.814 2619.713 Z" style="stroke: rgb(0, 0, 0); stroke-miterlimit: 10; stroke-width: 3.5px; fill: url(#gradient-20);" transform="matrix(1, 0, 0, 1, -1729.38147, -1100.562134)"/>
  <path class="st0" d="M 1322.214 2394.213 C 1310.814 2396.113 1295.814 2388.713 1287.514 2406.213 C 1279.314 2423.513 1269.814 2440.213 1259.814 2456.613 C 1253.314 2467.413 1256.614 2471.513 1267.014 2477.113 C 1308.514 2499.513 1308.314 2499.913 1327.214 2458.413 C 1332.514 2446.813 1337.614 2435.113 1343.014 2423.513 C 1356.414 2394.213 1356.414 2394.213 1322.214 2394.213 Z" style="stroke: rgb(0, 0, 0); stroke-miterlimit: 10; stroke-width: 3.5px; fill: url(#gradient-21);" transform="matrix(1, 0, 0, 1, -1729.38147, -1100.562134)"/>
  <path class="st0" d="M 1364.814 2685.513 C 1364.814 2651.413 1364.214 2618.613 1365.114 2585.813 C 1365.614 2569.013 1352.414 2568.213 1342.714 2562.513 C 1334.614 2557.713 1330.514 2562.113 1328.014 2568.413 C 1317.514 2594.413 1293.214 2620.413 1298.314 2645.413 C 1302.214 2664.413 1336.514 2672.613 1357.914 2684.613 C 1358.614 2685.113 1359.614 2684.913 1364.814 2685.513 Z" style="stroke: rgb(0, 0, 0); stroke-miterlimit: 10; stroke-width: 3.5px; fill: url(#gradient-22);" transform="matrix(1, 0, 0, 1, -1729.38147, -1100.562134)"/>
  <path class="st0" d="M 1687.714 1862.713 C 1688.114 1833.313 1671.714 1807.613 1647.914 1799.313 C 1637.914 1795.813 1631.614 1796.413 1632.014 1808.913 C 1633.014 1845.613 1634.314 1882.313 1635.114 1919.013 C 1635.414 1933.013 1643.614 1929.913 1651.814 1927.713 C 1672.914 1922.113 1687.314 1896.113 1687.714 1862.713 Z" style="stroke: rgb(0, 0, 0); stroke-miterlimit: 10; stroke-width: 3.5px; fill: rgb(255, 251, 0);" transform="matrix(1, 0, 0, 1, -1729.38147, -1100.562134)"/>
  <path class="st0" d="M 1043.714 1878.313 C 1040.514 1881.713 1038.314 1883.413 1037.114 1885.613 C 1028.514 1901.613 1019.914 1917.713 1011.614 1933.913 C 1004.114 1948.313 1023.414 1994.513 1038.714 2000.113 C 1043.614 2001.913 1045.114 1998.913 1046.914 1996.113 C 1059.414 1976.013 1071.714 1955.813 1084.114 1935.713 C 1087.514 1930.113 1086.314 1925.513 1082.214 1920.913 C 1069.414 1906.913 1056.714 1892.813 1043.714 1878.313 Z" style="stroke: rgb(0, 0, 0); stroke-miterlimit: 10; stroke-width: 3.5px; fill: url(#gradient-24);" transform="matrix(1, 0, 0, 1, -1729.38147, -1100.562134)"/>
  <path class="st0" d="M 1252.914 1944.413 C 1243.114 1963.113 1235.414 1978.713 1226.814 1993.813 C 1222.114 2002.013 1221.314 2008.113 1228.414 2015.713 C 1245.814 2034.213 1262.414 2053.513 1279.614 2072.913 C 1312.014 2025.613 1312.014 2024.213 1281.714 1983.113 C 1273.114 1971.413 1264.414 1959.713 1252.914 1944.413 Z" style="stroke: rgb(0, 0, 0); stroke-miterlimit: 10; stroke-width: 3.5px; fill: url(#gradient-25);" transform="matrix(1, 0, 0, 1, -1729.38147, -1100.562134)"/>
  <path class="st0" d="M 989.114 2183.113 C 1016.914 2183.113 1039.714 2183.713 1062.414 2182.913 C 1082.214 2182.213 1094.314 2159.013 1083.614 2142.313 C 1074.814 2128.513 1064.114 2115.913 1054.914 2102.413 C 1046.814 2090.513 1041.714 2094.313 1035.914 2104.413 C 1021.414 2129.413 1006.514 2154.013 989.114 2183.113 Z" style="stroke: rgb(0, 0, 0); stroke-miterlimit: 10; stroke-width: 3.5px; fill: url(#gradient-26);" transform="matrix(1, 0, 0, 1, -1729.38147, -1100.562134)"/>
  <path class="st0" d="M 1133.614 2466.213 C 1132.214 2466.813 1128.914 2467.213 1127.914 2468.913 C 1117.114 2487.813 1099.614 2506.413 1098.214 2526.113 C 1097.114 2541.813 1124.814 2546.313 1139.014 2556.713 C 1145.214 2561.313 1150.514 2560.413 1154.414 2553.013 C 1163.814 2535.413 1173.514 2517.813 1183.114 2500.313 C 1185.514 2495.913 1186.514 2490.913 1181.614 2488.513 C 1166.314 2480.813 1150.414 2473.913 1133.614 2466.213 Z" style="stroke: rgb(0, 0, 0); stroke-miterlimit: 10; stroke-width: 3.5px; fill: url(#gradient-27);" transform="matrix(1, 0, 0, 1, -1729.38147, -1100.562134)"/>
  <path class="st0" d="M 994.814 2465.613 C 995.214 2471.313 1042.614 2503.213 1050.014 2502.713 C 1055.114 2502.413 1084.314 2455.713 1083.814 2448.713 C 1083.514 2443.813 1031.414 2415.113 1023.414 2415.413 C 1018.314 2415.713 994.214 2457.813 994.814 2465.613 Z M 1088.714 2661.613 C 1094.114 2661.713 1122.714 2617.613 1123.314 2608.213 C 1123.714 2602.013 1081.014 2570.313 1074.514 2574.213 C 1054.914 2586.113 1050.514 2609.313 1039.914 2627.913 C 1037.114 2632.813 1078.814 2661.413 1088.714 2661.613 Z" style="stroke: rgb(0, 0, 0); stroke-miterlimit: 10; stroke-width: 3.5px; fill: url(#gradient-28);" transform="matrix(1, 0, 0, 1, -1729.38147, -1100.562134)"/>
  <path class="st0" d="M 962.914 2135.913 C 978.414 2110.313 993.814 2084.813 1009.314 2059.213 C 1012.814 2053.413 1014.614 2047.613 1010.114 2041.513 C 1000.114 2027.813 990.014 2014.213 979.014 1999.213 C 943.114 2042.113 962.314 2089.813 962.914 2135.913 Z" style="stroke: rgb(0, 0, 0); stroke-miterlimit: 10; stroke-width: 3.5px; fill: url(#gradient-29);" transform="matrix(1, 0, 0, 1, -1729.38147, -1100.562134)"/>
  <path class="st0" d="M 1187.114 1857.013 C 1139.714 1927.013 1139.714 1927.413 1187.614 1965.213 C 1230.814 1889.913 1230.114 1910.313 1187.114 1857.013 Z" style="stroke: rgb(0, 0, 0); stroke-miterlimit: 10; stroke-width: 3.5px; fill: url(#gradient-30);" transform="matrix(1, 0, 0, 1, -1729.38147, -1100.562134)"/>
  <path class="st0" d="M 1181.914 2695.913 C 1187.714 2695.913 1192.314 2695.413 1196.814 2696.013 C 1213.514 2698.013 1223.714 2692.913 1228.614 2675.013 C 1234.114 2655.313 1215.714 2658.813 1208.814 2651.813 C 1202.614 2645.513 1192.614 2643.213 1185.614 2637.513 C 1170.114 2624.813 1161.414 2631.313 1155.514 2646.913 C 1150.214 2660.913 1131.814 2673.713 1139.514 2687.713 C 1147.614 2702.113 1168.014 2694.813 1181.914 2695.913 Z" style="stroke: rgb(0, 0, 0); stroke-miterlimit: 10; stroke-width: 3.5px; fill: url(#gradient-31);" transform="matrix(1, 0, 0, 1, -1729.38147, -1100.562134)"/>
  <path class="st0" d="M 962.614 2559.013 C 962.614 2564.713 963.314 2568.513 962.514 2572.013 C 958.214 2591.713 970.014 2600.813 985.714 2606.313 C 1004.014 2612.613 1002.414 2593.713 1008.914 2585.813 C 1015.814 2577.413 1019.614 2566.613 1025.114 2557.113 C 1028.214 2551.813 1030.014 2546.313 1024.014 2542.813 C 1007.514 2533.313 989.514 2515.913 974.014 2517.813 C 957.014 2519.913 963.914 2545.213 962.614 2559.013 Z" style="stroke: rgb(0, 0, 0); stroke-miterlimit: 10; stroke-width: 3.5px; fill: url(#gradient-32);" transform="matrix(1, 0, 0, 1, -1729.38147, -1100.562134)"/>
  <path class="st0" d="M 1203.014 2394.413 C 1194.714 2394.413 1186.514 2393.913 1178.214 2394.513 C 1161.814 2395.813 1152.614 2413.013 1156.814 2420.613 C 1165.514 2436.413 1186.614 2439.913 1203.214 2446.713 C 1215.714 2451.813 1216.914 2437.613 1221.014 2430.613 C 1242.014 2394.413 1241.814 2394.213 1203.014 2394.413 Z" style="stroke: rgb(0, 0, 0); stroke-miterlimit: 10; stroke-width: 3.5px; fill: url(#gradient-33);" transform="matrix(1, 0, 0, 1, -1729.38147, -1100.562134)"/>
  <path class="st0" d="M 1361.014 2160.413 C 1359.714 2124.313 1370.814 2090.913 1340.414 2066.413 C 1309.814 2118.513 1307.614 2108.413 1361.014 2160.413 Z" style="stroke: rgb(0, 0, 0); stroke-miterlimit: 10; stroke-width: 3.5px; fill: url(#gradient-34);" transform="matrix(1, 0, 0, 1, -1729.38147, -1100.562134)"/>
  <path class="st0" d="M 971.514 1910.313 C 981.814 1891.013 990.014 1875.813 997.914 1860.413 C 1000.314 1855.813 1004.314 1848.813 995.614 1847.913 C 983.014 1846.713 967.914 1844.113 957.914 1849.513 C 947.014 1855.513 952.414 1871.613 954.714 1882.613 C 956.414 1890.913 963.814 1898.113 971.514 1910.313 Z M 1113.514 1886.213 C 1121.214 1872.613 1131.214 1863.213 1133.014 1848.613 C 1115.914 1848.613 1100.314 1848.613 1079.914 1848.613 C 1092.714 1862.913 1102.514 1873.913 1113.514 1886.213 Z" style="stroke: rgb(0, 0, 0); stroke-miterlimit: 10; stroke-width: 3.5px; fill: url(#gradient-35);" transform="matrix(1, 0, 0, 1, -1729.38147, -1100.562134)"/>
  <path class="st0" d="M 1043.214 2697.913 C 1043.914 2696.113 1044.614 2694.213 1045.314 2692.413 C 1037.114 2687.613 1029.014 2682.413 1020.614 2678.113 C 1009.814 2672.613 1008.914 2682.613 1006.414 2688.413 C 1001.614 2699.513 1010.814 2697.513 1016.414 2697.813 C 1025.414 2698.213 1034.314 2697.913 1043.214 2697.913 Z" style="stroke: rgb(0, 0, 0); stroke-miterlimit: 10; stroke-width: 3.5px; fill: url(#gradient-36);" transform="matrix(1, 0, 0, 1, -1729.38147, -1100.562134)"/>
  <path class="st0" d="M 1149.214 1593.213 C 1076.914 1592.613 1020.014 1535.113 1020.614 1463.313 C 1021.214 1392.313 1080.314 1334.413 1151.414 1334.913 C 1222.614 1335.513 1281.914 1394.113 1282.114 1464.113 C 1282.514 1535.513 1222.414 1593.813 1149.214 1593.213 Z" style="stroke: rgb(0, 0, 0); stroke-miterlimit: 10; stroke-width: 3.5px; fill: url(#gradient-37);" transform="matrix(1, 0, 0, 1, -1729.38147, -1100.562134)"/>
  <path class="st0" d="M 1078.314 1464.213 C 1078.314 1505.613 1110.014 1537.413 1151.114 1537.313 C 1192.414 1537.213 1224.414 1504.813 1223.714 1463.713 C 1223.114 1422.513 1193.614 1393.813 1151.914 1393.613 C 1107.514 1393.513 1078.314 1421.513 1078.314 1464.213 Z" style="stroke: rgb(0, 0, 0); stroke-miterlimit: 10; stroke-width: 3.5px; fill: rgb(234, 255, 0);" transform="matrix(1, 0, 0, 1, -1729.38147, -1100.562134)"/>
  <path class="st0" d="M 1468.914 1047.413 C 1542.414 1047.413 1600.614 1105.513 1599.914 1178.113 C 1599.214 1249.213 1540.314 1305.613 1467.814 1304.713 C 1395.414 1303.813 1336.714 1245.713 1337.614 1175.613 C 1338.614 1104.913 1397.514 1047.413 1468.914 1047.413 Z" style="stroke: rgb(0, 0, 0); stroke-miterlimit: 10; stroke-width: 3.5px; fill: rgb(0, 255, 34);" transform="matrix(1, 0, 0, 1, -1729.38147, -1100.562134)"/>
  <path class="st0" d="M 1542.114 1176.913 C 1542.314 1135.213 1511.314 1104.613 1469.114 1104.713 C 1428.014 1104.813 1396.814 1134.813 1396.114 1174.713 C 1395.414 1216.313 1426.014 1247.413 1468.314 1248.013 C 1510.714 1248.613 1541.914 1218.613 1542.114 1176.913 Z" style="stroke: rgb(0, 0, 0); stroke-miterlimit: 10; stroke-width: 3.5px; fill: rgb(34, 0, 255);" transform="matrix(1, 0, 0, 1, -1729.38147, -1100.562134)"/>
  <path class="st0" d="M 893.514 1036.313 C 966.414 1036.213 1023.514 1092.013 1024.114 1163.813 C 1024.714 1236.313 966.114 1294.213 892.614 1293.813 C 820.314 1293.413 763.514 1236.413 763.614 1164.313 C 763.814 1092.313 820.614 1036.313 893.514 1036.313 Z" style="stroke: rgb(0, 0, 0); stroke-miterlimit: 10; stroke-width: 3.5px; fill: rgb(0, 255, 34);" transform="matrix(1, 0, 0, 1, -1729.38147, -1100.562134)"/>
  <path class="st0" d="M 893.614 1236.213 C 934.814 1236.513 967.014 1204.813 967.214 1163.913 C 967.414 1124.513 935.814 1093.413 895.014 1092.513 C 854.014 1091.613 820.114 1123.713 819.714 1164.013 C 819.214 1203.813 852.114 1235.913 893.614 1236.213 Z" style="stroke: rgb(0, 0, 0); stroke-miterlimit: 10; stroke-width: 3.5px; fill: rgb(34, 0, 255);" transform="matrix(1, 0, 0, 1, -1729.38147, -1100.562134)"/>
</svg>